<?xml version="1.0" encoding="UTF-8"?>
<svg width="478px" height="484px" viewBox="0 0 478 484" version="1.1" xmlns="http://www.w3.org/2000/svg" xmlns:xlink="http://www.w3.org/1999/xlink">
    <!-- Generator: Sketch 46.2 (44496) - http://www.bohemiancoding.com/sketch -->
    <title>chat</title>
    <desc>Created with Sketch.</desc>
    <defs></defs>
    <g id="Page-1" stroke="none" stroke-width="1" fill="none" fill-rule="evenodd">
        <g id="chat" fill-rule="nonzero">
            <path d="M407.583,70 C362.483,24.9 302.583,0 238.783,0 C174.983,0 115.083,24.9 69.983,70 C-17.017,157 -23.317,296 54.183,390.2 C43.483,412.1 30.883,426.7 16.583,433.7 C7.883,438 2.983,447.4 4.383,457 C5.883,466.7 13.283,474.2 22.983,475.7 C28.283,476.5 33.983,477 39.883,477 L39.883,477 C69.183,477 99.983,466.9 125.683,449.2 C160.283,467.8 199.183,477.6 238.783,477.6 C302.583,477.6 362.483,452.8 407.583,407.7 C452.683,362.6 477.483,302.6 477.483,238.9 C477.483,175.2 452.683,115.1 407.583,70 Z M388.483,388.5 C348.483,428.5 295.283,450.5 238.783,450.5 C200.983,450.5 163.883,440.4 131.583,421.4 C129.483,420.2 127.083,419.5 124.783,419.5 C121.883,419.5 118.883,420.5 116.483,422.3 C85.883,446 55.083,449.5 41.583,449.8 C57.683,437.8 71.183,419.2 82.483,393.3 C84.583,388.5 83.683,382.9 80.183,378.9 C6.183,295.3 10.083,167.9 89.083,88.9 C129.083,48.9 182.283,26.9 238.783,26.9 C295.283,26.9 348.483,48.9 388.483,88.9 C471.083,171.6 471.083,306 388.483,388.5 Z" id="Shape" fill="#656565"></path>
            <path d="M338.783,160 L138.783,160 C131.283,160 125.283,166 125.283,173.5 C125.283,181 131.283,187 138.783,187 L338.783,187 C346.283,187 352.283,181 352.283,173.5 C352.283,166 346.183,160 338.783,160 Z" id="Shape" fill="#656565"></path>
            <path d="M338.783,225.3 L138.783,225.3 C131.283,225.3 125.283,231.3 125.283,238.8 C125.283,246.3 131.283,252.3 138.783,252.3 L338.783,252.3 C346.283,252.3 352.283,246.3 352.283,238.8 C352.283,231.3 346.183,225.3 338.783,225.3 Z" id="Shape" fill="#656565"></path>
            <path d="M338.783,290.6 L138.783,290.6 C131.283,290.6 125.283,296.6 125.283,304.1 C125.283,311.6 131.283,317.6 138.783,317.6 L338.783,317.6 C346.283,317.6 352.283,311.6 352.283,304.1 C352.283,296.6 346.183,290.6 338.783,290.6 Z" id="Shape" fill="#656565"></path>
        </g>
    </g>
</svg>