<?xml version="1.0" encoding="UTF-8"?>
<svg width="478px" height="484px" viewBox="0 0 478 484" version="1.1" xmlns="http://www.w3.org/2000/svg" xmlns:xlink="http://www.w3.org/1999/xlink">
    <!-- Generator: Sketch 46.2 (44496) - http://www.bohemiancoding.com/sketch -->
    <title>chat</title>
    <desc>Created with Sketch.</desc>
    <defs></defs>
    <g id="Page-1" stroke="none" stroke-width="1" fill="none" fill-rule="evenodd">
        <g id="chat" fill-rule="nonzero">
            <path d="M407.583,76 C362.483,30.9 302.583,6 238.783,6 C174.983,6 115.083,30.9 69.983,76 C-17.017,163 -23.317,302 54.183,396.2 C43.483,418.1 30.883,432.7 16.583,439.7 C7.883,444 2.983,453.4 4.383,463 C5.883,472.7 13.283,480.2 22.983,481.7 C28.283,482.5 33.983,483 39.883,483 L39.883,483 C69.183,483 99.983,472.9 125.683,455.2 C160.283,473.8 199.183,483.6 238.783,483.6 C302.583,483.6 362.483,458.8 407.583,413.7 C452.683,368.6 477.483,308.6 477.483,244.9 C477.483,181.2 452.683,121.1 407.583,76 Z M388.483,394.5 C348.483,434.5 295.283,456.5 238.783,456.5 C200.983,456.5 163.883,446.4 131.583,427.4 C129.483,426.2 127.083,425.5 124.783,425.5 C121.883,425.5 118.883,426.5 116.483,428.3 C85.883,452 55.083,455.5 41.583,455.8 C57.683,443.8 71.183,425.2 82.483,399.3 C84.583,394.5 83.683,388.9 80.183,384.9 C6.183,301.3 10.083,173.9 89.083,94.9 C129.083,54.9 182.283,32.9 238.783,32.9 C295.283,32.9 348.483,54.9 388.483,94.9 C471.083,177.6 471.083,312 388.483,394.5 Z" id="Shape" fill="#9E9B9B"></path>
            <path d="M407.583,70 C362.483,24.9 302.583,0 238.783,0 C174.983,0 115.083,24.9 69.983,70 C-17.017,157 -23.317,296 54.183,390.2 C43.483,412.1 30.883,426.7 16.583,433.7 C7.883,438 2.983,447.4 4.383,457 C5.883,466.7 13.283,474.2 22.983,475.7 C28.283,476.5 33.983,477 39.883,477 L39.883,477 C69.183,477 99.983,466.9 125.683,449.2 C160.283,467.8 199.183,477.6 238.783,477.6 C302.583,477.6 362.483,452.8 407.583,407.7 C452.683,362.6 477.483,302.6 477.483,238.9 C477.483,175.2 452.683,115.1 407.583,70 Z M388.483,388.5 C348.483,428.5 295.283,450.5 238.783,450.5 C200.983,450.5 163.883,440.4 131.583,421.4 C129.483,420.2 127.083,419.5 124.783,419.5 C121.883,419.5 118.883,420.5 116.483,422.3 C85.883,446 55.083,449.5 41.583,449.8 C57.683,437.8 71.183,419.2 82.483,393.3 C84.583,388.5 83.683,382.9 80.183,378.9 C6.183,295.3 10.083,167.9 89.083,88.9 C129.083,48.9 182.283,26.9 238.783,26.9 C295.283,26.9 348.483,48.9 388.483,88.9 C471.083,171.6 471.083,306 388.483,388.5 Z" id="Shape" fill="#FFFFFF"></path>
            <path d="M338.783,166 L138.783,166 C131.283,166 125.283,172 125.283,179.5 C125.283,187 131.283,193 138.783,193 L338.783,193 C346.283,193 352.283,187 352.283,179.5 C352.283,172 346.183,166 338.783,166 Z" id="Shape" fill="#9E9B9B"></path>
            <path d="M338.783,231.3 L138.783,231.3 C131.283,231.3 125.283,237.3 125.283,244.8 C125.283,252.3 131.283,258.3 138.783,258.3 L338.783,258.3 C346.283,258.3 352.283,252.3 352.283,244.8 C352.283,237.3 346.183,231.3 338.783,231.3 Z" id="Shape" fill="#9E9B9B"></path>
            <path d="M338.783,296.6 L138.783,296.6 C131.283,296.6 125.283,302.6 125.283,310.1 C125.283,317.6 131.283,323.6 138.783,323.6 L338.783,323.6 C346.283,323.6 352.283,317.6 352.283,310.1 C352.283,302.6 346.183,296.6 338.783,296.6 Z" id="Shape" fill="#9E9B9B"></path>
            <path d="M338.783,160 L138.783,160 C131.283,160 125.283,166 125.283,173.5 C125.283,181 131.283,187 138.783,187 L338.783,187 C346.283,187 352.283,181 352.283,173.5 C352.283,166 346.183,160 338.783,160 Z" id="Shape" fill="#FFFFFF"></path>
            <path d="M338.783,225.3 L138.783,225.3 C131.283,225.3 125.283,231.3 125.283,238.8 C125.283,246.3 131.283,252.3 138.783,252.3 L338.783,252.3 C346.283,252.3 352.283,246.3 352.283,238.8 C352.283,231.3 346.183,225.3 338.783,225.3 Z" id="Shape" fill="#FFFFFF"></path>
            <path d="M338.783,290.6 L138.783,290.6 C131.283,290.6 125.283,296.6 125.283,304.1 C125.283,311.6 131.283,317.6 138.783,317.6 L338.783,317.6 C346.283,317.6 352.283,311.6 352.283,304.1 C352.283,296.6 346.183,290.6 338.783,290.6 Z" id="Shape" fill="#FFFFFF"></path>
        </g>
    </g>
</svg>