<?xml version="1.0" encoding="UTF-8"?>
<svg width="279px" height="173px" viewBox="0 0 279 173" version="1.1" xmlns="http://www.w3.org/2000/svg" xmlns:xlink="http://www.w3.org/1999/xlink">
    <!-- Generator: Sketch 46.2 (44496) - http://www.bohemiancoding.com/sketch -->
    <title>RR-logo (4)</title>
    <desc>Created with Sketch.</desc>
    <defs>
        <filter x="-1.1%" y="-1.0%" width="102.1%" height="102.0%" filterUnits="objectBoundingBox" id="filter-1">
            <feGaussianBlur stdDeviation="0.555245536" in="SourceGraphic"></feGaussianBlur>
        </filter>
        <filter x="-1.3%" y="-1.0%" width="102.6%" height="102.0%" filterUnits="objectBoundingBox" id="filter-2">
            <feGaussianBlur stdDeviation="0.555245536" in="SourceGraphic"></feGaussianBlur>
        </filter>
        <filter x="-6.3%" y="-1.9%" width="112.6%" height="103.9%" filterUnits="objectBoundingBox" id="filter-3">
            <feGaussianBlur stdDeviation="0.555245536" in="SourceGraphic"></feGaussianBlur>
        </filter>
        <filter x="-4.3%" y="-4.2%" width="108.7%" height="108.4%" filterUnits="objectBoundingBox" id="filter-4">
            <feGaussianBlur stdDeviation="0.555245536" in="SourceGraphic"></feGaussianBlur>
        </filter>
    </defs>
    <g id="Page-1" stroke="none" stroke-width="1" fill="none" fill-rule="evenodd">
        <g id="Mobile" transform="translate(-72.000000, -16.000000)" fill-rule="nonzero">
            <g id="reviews-2" transform="translate(212.500000, 461.000000) rotate(90.000000) translate(-212.500000, -461.000000) translate(-269.500000, 221.500000)">
                <g id="RR-logo-(4)" transform="translate(123.500000, 240.409904) rotate(-90.000000) translate(-123.500000, -240.409904) translate(-15.000000, 153.909904)">
                    <g id="shadow" transform="translate(0.000000, 4.000000)" fill="#003247">
                        <path d="M225.678853,0 C229.257929,0.704731416 232.857694,1.26437107 236.395394,2.07273946 C259.007711,7.73131819 273.737784,24.8728735 276.22038,48.0875555 C277.372278,57.0534886 276.459343,66.1646394 273.551589,74.7222575 C267.345098,92.1539964 254.787297,102.517694 236.93329,106.663173 L235.133408,107.036266 C235.795433,108.176272 236.333329,109.109005 236.912602,110.083193 C248.346338,128.420028 259.773178,146.756863 271.193122,165.093698 C271.734106,166.080504 272.217641,167.097846 272.641303,168.140625 L237.264303,168.140625 C226.340878,149.513606 215.42435,130.858951 204.514717,112.17666 C203.862339,110.872685 202.464088,110.118358 201.018394,110.290467 C192.743072,110.290467 184.260867,110.290467 175.882104,110.290467 C172.902988,110.290467 172.8823,110.290467 172.8823,113.337394 C172.8823,127.901843 172.8823,142.473201 172.8823,157.051469 C172.8823,160.720218 172.8823,164.368239 173.00643,168.036988 L154.386956,168.036988 C153.786995,161.404222 152.938775,154.771455 152.649138,148.138689 C152.3987,135.320146 153.319722,122.505537 155.400683,109.855191 C156.373033,102.994424 158.23498,96.2580205 159.70385,89.4801625 C159.95211,88.298701 160.324499,87.1586943 162.062317,87.8634257 C162.30187,89.2735447 162.661789,90.6604612 163.138109,92.0089046 C163.514365,94.7078443 163.576847,97.4414038 163.324303,100.154771 L164.441472,99.4085845 L162.641589,104.818434 L164.131147,103.450426 L164.627667,105.025708 C165.041433,104.113703 165.310381,103.284607 165.724147,102.559148 C167.486703,99.3662549 168.120953,95.6704284 167.524029,92.0710868 C167.052562,90.0177655 167.109513,87.878097 167.689536,85.8528684 L171.620313,90.8481705 L171.454807,88.3816106 L171.90995,88.2157914 L176.316558,94.5583742 L176.978584,93.0038196 L180.185271,99.8438598 L180.516284,99.7194954 L180.185271,96.651841 L180.785232,96.5274767 L183.454023,103.906429 L183.785036,103.906429 L184.012608,100.23768 L185.93662,103.761337 C185.616583,99.5181069 184.328399,95.4051475 182.171349,91.7394485 C180.661102,89.3765255 179.295674,86.5161451 176.337247,85.251774 C175.882104,85.0652274 175.675221,84.2568591 175.364896,83.7179468 C175.894132,83.4774381 176.440418,83.2765239 176.999273,83.1168523 C177.480683,83.0663359 177.966043,83.0663359 178.447454,83.1168523 C190.301852,83.1168523 202.176939,83.1168523 214.031337,83.1168523 C217.01475,83.1343018 219.993188,82.8705937 222.927308,82.3292114 C235.531333,80.1037012 244.738928,69.1593866 244.794846,56.3370585 C245.2293,42.5740685 237.781511,32.2103712 224.830632,28.7074415 C222.326758,27.9774522 219.741028,27.5665751 217.134583,27.4845252 C203.045848,27.3601609 188.977801,27.4845252 174.889065,27.3601609 C173.399508,27.3601609 172.820235,27.8783457 172.820235,29.4329003 C172.820235,31.7543685 172.820235,34.0758367 172.820235,36.3973049 C172.820235,44.5224436 172.820235,52.6268549 172.820235,60.7519936 C172.820235,62.5552769 172.406469,64.4414698 170.751405,64.6487438 C169.562628,64.865807 168.507124,65.5434993 167.813665,66.5349367 C166.805753,67.6787239 165.859635,68.8757141 164.979368,70.1207759 L163.303615,64.0061945 C163.08335,61.984103 162.501706,60.0182218 161.586486,58.202524 C159.437465,55.7280695 157.076933,53.4463032 154.531774,51.3832112 C152.835333,49.849384 151.035451,48.4399212 149.276945,46.9682762 L149.93897,46.1391804 L160.469317,54.0984999 L160.696889,53.8704986 L156.331656,48.5435582 L156.621293,48.2326472 L159.145266,49.269017 C158.532895,48.3008904 157.840879,47.3857034 157.076435,46.5330009 C156.393721,45.6624503 156.04202,44.4602614 155.235176,43.7969848 C153.269787,42.1595206 150.745814,41.5791536 148.676984,39.817325 C146.608153,38.0554965 143.525596,37.7445856 140.877493,36.8118528 C138.808663,36.086394 136.739832,36.6253063 134.505495,36.0242118 C132.271159,35.4231174 128.981718,36.666761 126.230174,37.1642185 C125.620695,37.3018473 125.01972,37.4748676 124.430291,37.6824034 L124.182032,37.0813089 L132.457353,33.4332875 L132.457353,33.0601944 L128.423134,33.0601944 L128.319692,32.4798273 L138.994857,28.7488963 L138.994857,28.4587128 L135.932988,28.2099841 L135.932988,27.6710718 L147.601192,25.5983323 L147.601192,25.163057 L142.180856,24.686327 C146.5254,22.7379519 151.118204,23.0281354 155.628254,22.1990396 L148.635607,21.3492164 C151.862983,19.276477 155.586878,19.856844 159.538344,19.0277482 L148.739049,19.0277482 C148.077023,19.0277482 147.042608,19.4630235 146.794348,19.17284 C145.325479,17.4731936 143.856609,18.8412017 142.449804,19.17284 C141.043,19.5044783 139.905143,20.5823028 138.953481,20.2921193 C136.574326,19.5459331 135.146833,20.9761233 133.450392,21.9503109 C133.036626,22.1783122 132.49873,22.7794067 132.271159,22.6550423 C130.409211,21.8052191 129.147225,23.1317724 128.319692,24.1474147 C126.540498,26.3237911 123.333811,26.6761569 122.113201,29.3914455 C122.113201,29.5987195 121.430487,29.5987195 120.768461,29.7438113 L121.223604,24.5205078 L119.154774,25.1008749 L122.278708,18.488836 C121.836706,18.5899552 121.386764,18.6523725 120.933968,18.6753825 C120.665208,18.6091902 120.407394,18.5044733 120.168501,18.3644716 L124.182032,12.4364368 L120.809838,13.2655325 L126.230174,6.61203888 L122.795915,6.61203888 L128.443822,0 L225.678853,0 Z" id="Shape" filter="url(#filter-1)"></path>
                        <path d="M127.098425,0 C126.374139,0.55950171 125.629159,1.09828113 125.029036,1.69922742 C123.270054,3.17050969 121.552461,4.68323654 119.79348,6.15451881 C118.986418,6.81763195 118.09658,7.35641137 117.310212,8.0402468 C116.523844,8.72408222 116.896334,10.4854765 115.095965,10.6098102 C114.764863,10.6098102 114.6407,12.4748159 114.309597,13.4487633 C114.081965,14.0911542 114.930414,15.7282147 113.026576,15.0443793 C112.736026,15.70006 112.560994,16.4011494 112.509228,17.1166079 C112.677112,18.9029303 112.332521,20.7001368 111.515921,22.2971793 C110.971071,24.0256585 110.637534,25.8139188 110.522614,27.6228066 C108.660164,25.2811884 107.211591,23.2089598 105.473304,21.406121 C104.852487,20.7637301 104.314446,18.4428341 102.534771,20.3285621 C102.534771,20.3285621 101.872566,19.7690604 101.541464,19.4582261 L97.4026843,15.5624365 L96.7818674,17.489609 C96.0928062,16.8894965 95.3595439,16.3422588 94.5883145,15.8525485 C93.5950074,15.313769 92.8707211,13.7803199 91.2152094,15.2516022 C90.7185559,15.7074925 88.9181869,14.7128227 87.6972471,14.3812662 C86.9522668,14.1740433 86.1865926,13.9253759 86.8487973,15.1894353 C86.321216,15.423076 85.7642266,15.5834301 85.1932856,15.6660479 C82.2689107,15.736595 79.394914,16.4437054 76.7708699,17.7382764 L76.7708699,18.4221119 L82.0064256,18.4221119 L82.4409975,19.230281 L79.8335666,20.8051747 L80.1853628,21.3646764 L89.311371,21.986345 L86.1865926,24.0585735 L94.4641511,24.7838535 C93.7205295,26.5654349 91.8889351,27.6388524 89.9735756,27.4155838 C80.6199346,27.2912501 71.3490692,27.2083609 61.8919587,27.4155838 C58.0403428,27.4648157 54.2125749,28.0293148 50.5103158,29.0940889 C37.1834467,33.238546 30.4993183,44.6358031 31.8858093,57.8566213 C33.3757699,72.3622212 43.7641057,82.0809731 58.4153841,82.7233639 C64.3752262,83.0134759 70.376456,82.8476977 76.356992,82.8684199 L100.19636,82.8684199 C104.33514,82.8684199 103.838486,83.0341982 103.838486,79.3456314 C103.838486,71.0567172 103.962649,62.9128589 103.838486,54.7068339 C103.73957,52.2675881 105.109193,50.006242 107.315061,48.9667608 L106.404529,51.598491 L108.204898,51.2047676 C106.534754,55.3855364 106.068748,59.9514905 106.859795,64.3841412 C107.75257,68.7697028 109.480986,72.9418836 111.950493,76.6724566 L110.936492,72.3000543 L111.35037,72.0928314 L113.41976,74.9732291 L113.730168,74.8488954 L111.08135,67.0158715 L111.557309,66.7257595 L113.440454,69.523268 L113.730168,69.4196566 L111.557309,61.3794098 L113.171433,62.7678029 L112.509228,55.1212796 L113.026576,55.1212796 L114.040577,56.7376179 C114.185434,56.530395 114.350985,56.385339 114.330291,56.2610053 C114.330291,55.1005573 114.144046,53.9401093 114.206128,52.7796613 C114.206128,52.2616042 114.682088,51.7849916 114.951108,51.2876568 C115.551231,51.8471585 116.585926,50.7074328 117.020498,52.4895493 C120.550498,64.2440933 122.941341,76.3118626 124.159892,88.5256039 C125.235975,99.5705821 126.456914,110.657005 126.767323,121.681261 C127.036344,130.9234 126.249975,140.206984 125.649852,149.449123 C125.235975,155.665809 124.284055,161.882495 123.580463,168.09918 L103.900568,168.09918 C103.900568,166.938732 103.75571,165.799007 103.75571,164.638559 C103.75571,147.466691 103.75571,130.294824 103.75571,113.122957 C103.75571,110.408337 103.75571,110.366893 101.065504,110.366893 C92.5810065,110.366893 84.117203,110.366893 75.6327056,110.366893 C73.9939527,110.248233 72.4590261,111.17876 71.8043349,112.687789 C61.4987746,130.329361 51.1518266,147.950211 40.7634908,165.550339 C40.3374551,166.389603 39.964237,167.254719 39.6460204,168.140625 L3.82488626,168.140625 C6.57717444,163.602444 9.26738093,159.043542 12.1024447,154.546806 C21.3319223,139.709649 30.5751959,124.886308 39.8322654,110.076781 C40.3910006,109.185723 40.8876541,108.273942 41.5705527,107.134216 L38.1146721,106.243158 C17.0890886,101.375122 1.73968683,83.2758795 0.348311717,61.7109664 C-0.72650492,51.6699194 0.695299832,41.5185441 4.48709093,32.1609872 C11.6678729,15.4381027 24.6222518,5.76079538 42.0465123,1.69922742 C44.9229639,1.03611428 47.8614971,0.55950171 50.7793365,3.01383297e-14 L127.098425,0 Z" id="Shape" filter="url(#filter-2)"></path>
                        <path d="M135.292321,168.099381 C135.168213,163.315042 135.147528,158.510082 134.919996,153.663877 C134.078817,135.626371 133.189374,117.588865 132.251666,99.5513593 C132.1546,96.7819686 131.843406,94.0241683 131.320854,91.3025 C130.510643,88.9358923 131.727312,86.3548709 134.071922,85.4664319 C134.702639,85.0867551 135.408261,84.8475696 136.140395,84.7652789 L134.071922,87.3224253 L134.320139,87.5698911 L140.959937,83.2804842 L140.670351,84.9715004 L147.827267,82.0843996 L148.054799,82.4968426 L146.193173,84.5590574 L152.398592,82.4968426 L151.571203,84.3115916 L157.54909,84.3115916 C147.910006,111.677183 147.910006,139.991392 147.516996,168.140625 L135.292321,168.099381 Z" id="Shape" filter="url(#filter-3)"></path>
                        <path d="M130.22833,83.4083415 C128.493571,70.7270062 125.219882,58.3009674 120.478716,46.4014395 C122.270311,46.4014395 123.770252,46.153071 125.24936,46.1737684 C126.728469,46.1944657 128.145079,46.4221368 130.020005,46.5877158 L127.936754,44.766347 L128.040917,44.2696101 C129.332532,44.6007681 130.624148,44.8905313 131.894931,45.2837813 C133.165714,45.6770314 134.582325,46.2358605 135.915605,46.7325974 L136.353088,46.153071 L133.582364,44.3110048 L133.999015,43.6900837 C137.873861,44.373097 141.207063,46.5256237 145.24857,48.4090846 L143.561137,45.8840051 C148.33747,47.7608236 152.548319,50.8254225 155.78982,54.7838753 C155.508122,54.9299788 155.215619,55.0545242 154.914855,55.156428 C154.505667,55.1853994 154.094924,55.1853994 153.685737,55.156428 L157.227263,59.5649684 L155.394002,59.70985 C156.011659,60.3775877 156.549902,61.1137394 156.998106,61.9037715 C157.227263,62.4419032 159.456342,63.2697981 156.998106,63.8493245 C157.114496,64.3066951 157.260631,64.756082 157.435588,65.1946537 C157.893904,66.1467329 158.393884,67.0781146 158.873031,68.0301937 C157.664746,68.4027465 157.664746,68.4027465 157.518918,72.1696683 C149.956717,64.2839693 140.623753,63.0628243 130.64498,64.263272 C131.561611,64.263272 132.499074,64.263272 133.415704,64.4702457 C134.504571,64.5836605 135.552481,64.9448629 136.478083,65.5258117 L131.561611,66.4985882 L141.082068,67.3678778 L141.082068,67.9060095 L138.353009,68.6511149 L138.353009,68.9822729 L145.936043,70.4517863 L145.936043,70.7208522 L143.852792,71.1968917 L151.664983,73.8668528 L151.664983,74.3635897 L149.060919,74.7154451 L154.727362,77.3440114 L154.581534,77.6130772 C153.081594,77.3854061 151.602486,77.0956429 150.102545,76.9093666 C145.711366,76.5347728 141.298556,77.3202131 137.311384,79.1860775 C134.855055,80.4292973 132.488371,81.8400963 130.22833,83.4083415 L130.22833,83.4083415 Z" id="Shape" filter="url(#filter-4)"></path>
                    </g>
                    <g id="Top" transform="translate(0.000000, -0.000000)" fill="#005E86">
                        <path d="M225.678853,0 C229.257929,0.704731416 232.857694,1.26437107 236.395394,2.07273946 C259.007711,7.73131819 273.737784,24.8728735 276.22038,48.0875555 C277.372278,57.0534886 276.459343,66.1646394 273.551589,74.7222575 C267.345098,92.1539964 254.787297,102.517694 236.93329,106.663173 L235.133408,107.036266 C235.795433,108.176272 236.333329,109.109005 236.912602,110.083193 C248.346338,128.420028 259.773178,146.756863 271.193122,165.093698 C271.734106,166.080504 272.217641,167.097846 272.641303,168.140625 L237.264303,168.140625 C226.340878,149.513606 215.42435,130.858951 204.514717,112.17666 C203.862339,110.872685 202.464088,110.118358 201.018394,110.290467 C192.743072,110.290467 184.260867,110.290467 175.882104,110.290467 C172.902988,110.290467 172.8823,110.290467 172.8823,113.337394 C172.8823,127.901843 172.8823,142.473201 172.8823,157.051469 C172.8823,160.720218 172.8823,164.368239 173.00643,168.036988 L154.386956,168.036988 C153.786995,161.404222 152.938775,154.771455 152.649138,148.138689 C152.3987,135.320146 153.319722,122.505537 155.400683,109.855191 C156.373033,102.994424 158.23498,96.2580205 159.70385,89.4801625 C159.95211,88.298701 160.324499,87.1586943 162.062317,87.8634257 C162.30187,89.2735447 162.661789,90.6604612 163.138109,92.0089046 C163.514365,94.7078443 163.576847,97.4414038 163.324303,100.154771 L164.441472,99.4085845 L162.641589,104.818434 L164.131147,103.450426 L164.627667,105.025708 C165.041433,104.113703 165.310381,103.284607 165.724147,102.559148 C167.486703,99.3662549 168.120953,95.6704284 167.524029,92.0710868 C167.052562,90.0177655 167.109513,87.878097 167.689536,85.8528684 L171.620313,90.8481705 L171.454807,88.3816106 L171.90995,88.2157914 L176.316558,94.5583742 L176.978584,93.0038196 L180.185271,99.8438598 L180.516284,99.7194954 L180.185271,96.651841 L180.785232,96.5274767 L183.454023,103.906429 L183.785036,103.906429 L184.012608,100.23768 L185.93662,103.761337 C185.616583,99.5181069 184.328399,95.4051475 182.171349,91.7394485 C180.661102,89.3765255 179.295674,86.5161451 176.337247,85.251774 C175.882104,85.0652274 175.675221,84.2568591 175.364896,83.7179468 C175.894132,83.4774381 176.440418,83.2765239 176.999273,83.1168523 C177.480683,83.0663359 177.966043,83.0663359 178.447454,83.1168523 C190.301852,83.1168523 202.176939,83.1168523 214.031337,83.1168523 C217.01475,83.1343018 219.993188,82.8705937 222.927308,82.3292114 C235.531333,80.1037012 244.738928,69.1593866 244.794846,56.3370585 C245.2293,42.5740685 237.781511,32.2103712 224.830632,28.7074415 C222.326758,27.9774522 219.741028,27.5665751 217.134583,27.4845252 C203.045848,27.3601609 188.977801,27.4845252 174.889065,27.3601609 C173.399508,27.3601609 172.820235,27.8783457 172.820235,29.4329003 C172.820235,31.7543685 172.820235,34.0758367 172.820235,36.3973049 C172.820235,44.5224436 172.820235,52.6268549 172.820235,60.7519936 C172.820235,62.5552769 172.406469,64.4414698 170.751405,64.6487438 C169.562628,64.865807 168.507124,65.5434993 167.813665,66.5349367 C166.805753,67.6787239 165.859635,68.8757141 164.979368,70.1207759 L163.303615,64.0061945 C163.08335,61.984103 162.501706,60.0182218 161.586486,58.202524 C159.437465,55.7280695 157.076933,53.4463032 154.531774,51.3832112 C152.835333,49.849384 151.035451,48.4399212 149.276945,46.9682762 L149.93897,46.1391804 L160.469317,54.0984999 L160.696889,53.8704986 L156.331656,48.5435582 L156.621293,48.2326472 L159.145266,49.269017 C158.532895,48.3008904 157.840879,47.3857034 157.076435,46.5330009 C156.393721,45.6624503 156.04202,44.4602614 155.235176,43.7969848 C153.269787,42.1595206 150.745814,41.5791536 148.676984,39.817325 C146.608153,38.0554965 143.525596,37.7445856 140.877493,36.8118528 C138.808663,36.086394 136.739832,36.6253063 134.505495,36.0242118 C132.271159,35.4231174 128.981718,36.666761 126.230174,37.1642185 C125.620695,37.3018473 125.01972,37.4748676 124.430291,37.6824034 L124.182032,37.0813089 L132.457353,33.4332875 L132.457353,33.0601944 L128.423134,33.0601944 L128.319692,32.4798273 L138.994857,28.7488963 L138.994857,28.4587128 L135.932988,28.2099841 L135.932988,27.6710718 L147.601192,25.5983323 L147.601192,25.163057 L142.180856,24.686327 C146.5254,22.7379519 151.118204,23.0281354 155.628254,22.1990396 L148.635607,21.3492164 C151.862983,19.276477 155.586878,19.856844 159.538344,19.0277482 L148.739049,19.0277482 C148.077023,19.0277482 147.042608,19.4630235 146.794348,19.17284 C145.325479,17.4731936 143.856609,18.8412017 142.449804,19.17284 C141.043,19.5044783 139.905143,20.5823028 138.953481,20.2921193 C136.574326,19.5459331 135.146833,20.9761233 133.450392,21.9503109 C133.036626,22.1783122 132.49873,22.7794067 132.271159,22.6550423 C130.409211,21.8052191 129.147225,23.1317724 128.319692,24.1474147 C126.540498,26.3237911 123.333811,26.6761569 122.113201,29.3914455 C122.113201,29.5987195 121.430487,29.5987195 120.768461,29.7438113 L121.223604,24.5205078 L119.154774,25.1008749 L122.278708,18.488836 C121.836706,18.5899552 121.386764,18.6523725 120.933968,18.6753825 C120.665208,18.6091902 120.407394,18.5044733 120.168501,18.3644716 L124.182032,12.4364368 L120.809838,13.2655325 L126.230174,6.61203888 L122.795915,6.61203888 L128.443822,0 L225.678853,0 Z" id="Shape"></path>
                        <path d="M127.098425,0 C126.374139,0.55950171 125.629159,1.09828113 125.029036,1.69922742 C123.270054,3.17050969 121.552461,4.68323654 119.79348,6.15451881 C118.986418,6.81763195 118.09658,7.35641137 117.310212,8.0402468 C116.523844,8.72408222 116.896334,10.4854765 115.095965,10.6098102 C114.764863,10.6098102 114.6407,12.4748159 114.309597,13.4487633 C114.081965,14.0911542 114.930414,15.7282147 113.026576,15.0443793 C112.736026,15.70006 112.560994,16.4011494 112.509228,17.1166079 C112.677112,18.9029303 112.332521,20.7001368 111.515921,22.2971793 C110.971071,24.0256585 110.637534,25.8139188 110.522614,27.6228066 C108.660164,25.2811884 107.211591,23.2089598 105.473304,21.406121 C104.852487,20.7637301 104.314446,18.4428341 102.534771,20.3285621 C102.534771,20.3285621 101.872566,19.7690604 101.541464,19.4582261 L97.4026843,15.5624365 L96.7818674,17.489609 C96.0928062,16.8894965 95.3595439,16.3422588 94.5883145,15.8525485 C93.5950074,15.313769 92.8707211,13.7803199 91.2152094,15.2516022 C90.7185559,15.7074925 88.9181869,14.7128227 87.6972471,14.3812662 C86.9522668,14.1740433 86.1865926,13.9253759 86.8487973,15.1894353 C86.321216,15.423076 85.7642266,15.5834301 85.1932856,15.6660479 C82.2689107,15.736595 79.394914,16.4437054 76.7708699,17.7382764 L76.7708699,18.4221119 L82.0064256,18.4221119 L82.4409975,19.230281 L79.8335666,20.8051747 L80.1853628,21.3646764 L89.311371,21.986345 L86.1865926,24.0585735 L94.4641511,24.7838535 C93.7205295,26.5654349 91.8889351,27.6388524 89.9735756,27.4155838 C80.6199346,27.2912501 71.3490692,27.2083609 61.8919587,27.4155838 C58.0403428,27.4648157 54.2125749,28.0293148 50.5103158,29.0940889 C37.1834467,33.238546 30.4993183,44.6358031 31.8858093,57.8566213 C33.3757699,72.3622212 43.7641057,82.0809731 58.4153841,82.7233639 C64.3752262,83.0134759 70.376456,82.8476977 76.356992,82.8684199 L100.19636,82.8684199 C104.33514,82.8684199 103.838486,83.0341982 103.838486,79.3456314 C103.838486,71.0567172 103.962649,62.9128589 103.838486,54.7068339 C103.73957,52.2675881 105.109193,50.006242 107.315061,48.9667608 L106.404529,51.598491 L108.204898,51.2047676 C106.534754,55.3855364 106.068748,59.9514905 106.859795,64.3841412 C107.75257,68.7697028 109.480986,72.9418836 111.950493,76.6724566 L110.936492,72.3000543 L111.35037,72.0928314 L113.41976,74.9732291 L113.730168,74.8488954 L111.08135,67.0158715 L111.557309,66.7257595 L113.440454,69.523268 L113.730168,69.4196566 L111.557309,61.3794098 L113.171433,62.7678029 L112.509228,55.1212796 L113.026576,55.1212796 L114.040577,56.7376179 C114.185434,56.530395 114.350985,56.385339 114.330291,56.2610053 C114.330291,55.1005573 114.144046,53.9401093 114.206128,52.7796613 C114.206128,52.2616042 114.682088,51.7849916 114.951108,51.2876568 C115.551231,51.8471585 116.585926,50.7074328 117.020498,52.4895493 C120.550498,64.2440933 122.941341,76.3118626 124.159892,88.5256039 C125.235975,99.5705821 126.456914,110.657005 126.767323,121.681261 C127.036344,130.9234 126.249975,140.206984 125.649852,149.449123 C125.235975,155.665809 124.284055,161.882495 123.580463,168.09918 L103.900568,168.09918 C103.900568,166.938732 103.75571,165.799007 103.75571,164.638559 C103.75571,147.466691 103.75571,130.294824 103.75571,113.122957 C103.75571,110.408337 103.75571,110.366893 101.065504,110.366893 C92.5810065,110.366893 84.117203,110.366893 75.6327056,110.366893 C73.9939527,110.248233 72.4590261,111.17876 71.8043349,112.687789 C61.4987746,130.329361 51.1518266,147.950211 40.7634908,165.550339 C40.3374551,166.389603 39.964237,167.254719 39.6460204,168.140625 L3.82488626,168.140625 C6.57717444,163.602444 9.26738093,159.043542 12.1024447,154.546806 C21.3319223,139.709649 30.5751959,124.886308 39.8322654,110.076781 C40.3910006,109.185723 40.8876541,108.273942 41.5705527,107.134216 L38.1146721,106.243158 C17.0890886,101.375122 1.73968683,83.2758795 0.348311717,61.7109664 C-0.72650492,51.6699194 0.695299832,41.5185441 4.48709093,32.1609872 C11.6678729,15.4381027 24.6222518,5.76079538 42.0465123,1.69922742 C44.9229639,1.03611428 47.8614971,0.55950171 50.7793365,3.01383297e-14 L127.098425,0 Z" id="Shape"></path>
                        <path d="M135.292321,168.099381 C135.168213,163.315042 135.147528,158.510082 134.919996,153.663877 C134.078817,135.626371 133.189374,117.588865 132.251666,99.5513593 C132.1546,96.7819686 131.843406,94.0241683 131.320854,91.3025 C130.510643,88.9358923 131.727312,86.3548709 134.071922,85.4664319 C134.702639,85.0867551 135.408261,84.8475696 136.140395,84.7652789 L134.071922,87.3224253 L134.320139,87.5698911 L140.959937,83.2804842 L140.670351,84.9715004 L147.827267,82.0843996 L148.054799,82.4968426 L146.193173,84.5590574 L152.398592,82.4968426 L151.571203,84.3115916 L157.54909,84.3115916 C147.910006,111.677183 147.910006,139.991392 147.516996,168.140625 L135.292321,168.099381 Z" id="Shape"></path>
                        <path d="M130.22833,83.4083415 C128.493571,70.7270062 125.219882,58.3009674 120.478716,46.4014395 C122.270311,46.4014395 123.770252,46.153071 125.24936,46.1737684 C126.728469,46.1944657 128.145079,46.4221368 130.020005,46.5877158 L127.936754,44.766347 L128.040917,44.2696101 C129.332532,44.6007681 130.624148,44.8905313 131.894931,45.2837813 C133.165714,45.6770314 134.582325,46.2358605 135.915605,46.7325974 L136.353088,46.153071 L133.582364,44.3110048 L133.999015,43.6900837 C137.873861,44.373097 141.207063,46.5256237 145.24857,48.4090846 L143.561137,45.8840051 C148.33747,47.7608236 152.548319,50.8254225 155.78982,54.7838753 C155.508122,54.9299788 155.215619,55.0545242 154.914855,55.156428 C154.505667,55.1853994 154.094924,55.1853994 153.685737,55.156428 L157.227263,59.5649684 L155.394002,59.70985 C156.011659,60.3775877 156.549902,61.1137394 156.998106,61.9037715 C157.227263,62.4419032 159.456342,63.2697981 156.998106,63.8493245 C157.114496,64.3066951 157.260631,64.756082 157.435588,65.1946537 C157.893904,66.1467329 158.393884,67.0781146 158.873031,68.0301937 C157.664746,68.4027465 157.664746,68.4027465 157.518918,72.1696683 C149.956717,64.2839693 140.623753,63.0628243 130.64498,64.263272 C131.561611,64.263272 132.499074,64.263272 133.415704,64.4702457 C134.504571,64.5836605 135.552481,64.9448629 136.478083,65.5258117 L131.561611,66.4985882 L141.082068,67.3678778 L141.082068,67.9060095 L138.353009,68.6511149 L138.353009,68.9822729 L145.936043,70.4517863 L145.936043,70.7208522 L143.852792,71.1968917 L151.664983,73.8668528 L151.664983,74.3635897 L149.060919,74.7154451 L154.727362,77.3440114 L154.581534,77.6130772 C153.081594,77.3854061 151.602486,77.0956429 150.102545,76.9093666 C145.711366,76.5347728 141.298556,77.3202131 137.311384,79.1860775 C134.855055,80.4292973 132.488371,81.8400963 130.22833,83.4083415 L130.22833,83.4083415 Z" id="Shape"></path>
                    </g>
                </g>
            </g>
        </g>
    </g>
</svg>