<?xml version="1.0" encoding="UTF-8"?>
<svg width="30px" height="20px" viewBox="0 0 30 20" version="1.1" xmlns="http://www.w3.org/2000/svg" xmlns:xlink="http://www.w3.org/1999/xlink">
    <!-- Generator: Sketch 46.2 (44496) - http://www.bohemiancoding.com/sketch -->
    <title>RR-logo (4)</title>
    <desc>Created with Sketch.</desc>
    <defs></defs>
    <g id="Page-1" stroke="none" stroke-width="1" fill="none" fill-rule="evenodd">
        <g id="Mobile" transform="translate(-198.000000, -314.000000)" fill-rule="nonzero">
            <g id="SEPARATOR" transform="translate(28.000000, 314.000000)">
                <g id="RR-logo-(4)" transform="translate(170.000000, 0.000000)">
                    <path d="M24.4942546,0 C24.8804472,0.08382643 25.2688722,0.150394477 25.6506002,0.246548323 C28.0905343,0.919625247 29.6799515,2.95857988 29.9478308,5.7199211 C30.0721239,6.78640139 29.9736156,7.87015504 29.6598605,8.88806706 C28.9901623,10.9615385 27.6351394,12.1942801 25.7086408,12.6873767 L25.5144283,12.7317554 C25.5858627,12.867357 25.6439033,12.9783037 25.7064084,13.0941815 C26.9401415,15.2753123 28.1731304,17.4564431 29.4053752,19.637574 C29.4637489,19.7549526 29.5159238,19.8759635 29.5616381,20 L25.744358,20 C24.5656891,17.7843524 23.3877642,15.5654175 22.2105835,13.3431953 C22.14019,13.18809 21.9893146,13.0983643 21.8333201,13.1188363 C20.9403891,13.1188363 20.0251348,13.1188363 19.1210421,13.1188363 C18.799587,13.1188363 18.7973547,13.1188363 18.7973547,13.4812623 C18.7973547,15.2136752 18.7973547,16.9469099 18.7973547,18.6809665 C18.7973547,19.117357 18.7973547,19.5512821 18.8107486,19.9876726 L16.8016538,19.9876726 C16.7369163,19.1987179 16.6453909,18.4097633 16.6141383,17.6208087 C16.5871153,16.0960679 16.6864962,14.5717951 16.9110379,13.0670611 C17.0159573,12.2509862 17.2168667,11.4497041 17.375362,10.6434911 C17.4021499,10.5029586 17.4423318,10.367357 17.6298473,10.4511834 C17.6556959,10.6189143 17.6945321,10.7838854 17.7459284,10.9442801 C17.7865275,11.2653137 17.7932695,11.5904653 17.7660193,11.913215 L17.886565,11.8244576 L17.6923525,12.4679487 L17.8530801,12.3052268 L17.906656,12.4926036 C17.9513025,12.3841223 17.9803228,12.285503 18.0249693,12.199211 C18.2151542,11.8194226 18.2835916,11.3798112 18.2191818,10.9516765 C18.1683092,10.707438 18.1744543,10.4529286 18.2370404,10.2120316 L18.6611827,10.806213 L18.6433241,10.5128205 L18.6924353,10.4930966 L19.167921,11.2475345 L19.2393555,11.0626233 L19.5853663,11.8762327 L19.6210835,11.8614398 L19.5853663,11.4965483 L19.6501038,11.4817554 L19.938074,12.3594675 L19.9737913,12.3594675 L19.9983469,11.9230769 L20.2059533,12.3422091 C20.1714205,11.8374851 20.0324217,11.3482566 19.7996697,10.9122288 C19.6367098,10.6311637 19.4893762,10.290927 19.1701534,10.1405325 C19.1210421,10.1183432 19.0987189,10.0221893 19.065234,9.95808679 C19.12234,9.92947874 19.1812858,9.90558039 19.2415878,9.88658777 C19.2935334,9.88057893 19.3459052,9.88057893 19.3978508,9.88658777 C20.6769745,9.88658777 21.9583305,9.88658777 23.2374542,9.88658777 C23.5593729,9.88866335 23.880755,9.85729578 24.197355,9.79289941 C25.5573655,9.52817931 26.5508915,8.2263744 26.5569252,6.70118343 C26.6038041,5.06410256 25.8001662,3.83136095 24.4027291,3.41469428 C24.1325539,3.32786347 23.8535462,3.27899044 23.5723033,3.26923077 C22.0520882,3.25443787 20.5341055,3.26923077 19.0138904,3.25443787 C18.8531628,3.25443787 18.7906577,3.31607495 18.7906577,3.50098619 C18.7906577,3.77712032 18.7906577,4.05325444 18.7906577,4.32938856 C18.7906577,5.29585799 18.7906577,6.25986193 18.7906577,7.22633136 C18.7906577,7.4408284 18.7460111,7.66518738 18.5674249,7.68984221 C18.4391525,7.71566146 18.3252606,7.79627164 18.2504344,7.91420118 C18.1416777,8.05025245 18.0395889,8.1926321 17.9446055,8.34072978 L17.763787,7.61341223 C17.7400198,7.37288837 17.6772587,7.13905064 17.5785038,6.92307692 C17.3466183,6.62874538 17.0919101,6.35733371 16.8172801,6.11193294 C16.6342293,5.92948718 16.4400168,5.76183432 16.2502689,5.58678501 L16.3217034,5.48816568 L17.4579581,6.43491124 L17.4825137,6.40779093 L17.0114926,5.77416174 L17.0427452,5.73717949 L17.3150892,5.86045365 C17.2490126,5.74529688 17.1743421,5.63643716 17.0918564,5.53500986 C17.0181896,5.43145957 16.98024,5.28846154 16.8931793,5.20956607 C16.6811081,5.0147929 16.4087642,4.94575937 16.1855314,4.73619329 C15.9622987,4.52662722 15.6296819,4.48964497 15.3439439,4.37869822 C15.1207112,4.29240631 14.8974784,4.35650888 14.656387,4.28500986 C14.4152957,4.21351085 14.0603556,4.36143984 13.763456,4.42061144 C13.6976915,4.43698212 13.6328446,4.45756255 13.5692435,4.48224852 L13.5424556,4.41074951 L14.4353866,3.97682446 L14.4353866,3.93244576 L14.0000827,3.93244576 L13.9889211,3.86341223 L15.1408021,3.41962525 L15.1408021,3.38510848 L14.8104176,3.35552268 L14.8104176,3.29142012 L16.0694504,3.04487179 L16.0694504,2.99309665 L15.4845806,2.93639053 C15.9533694,2.70463511 16.4489461,2.73915187 16.9355935,2.64053254 L16.1810668,2.53944773 C16.5293099,2.29289941 16.9311288,2.36193294 17.3575034,2.26331361 L16.1922284,2.26331361 C16.1207939,2.26331361 16.0091775,2.31508876 15.9823896,2.28057199 C15.8238944,2.07840237 15.6653991,2.24112426 15.5136008,2.28057199 C15.3618026,2.32001972 15.2390245,2.44822485 15.1363375,2.41370809 C14.8796198,2.32495069 14.7255892,2.49506903 14.5425383,2.61094675 C14.4978918,2.63806706 14.4398513,2.70956607 14.4152957,2.69477318 C14.2143862,2.59368836 14.0782142,2.75147929 13.9889211,2.87228797 C13.7969409,3.13116371 13.4509302,3.17307692 13.3192228,3.49605523 C13.3192228,3.52071006 13.245556,3.52071006 13.1741215,3.53796844 L13.2232328,2.91666667 L13,2.9857002 L13.3370815,2.19921105 C13.2893882,2.21123898 13.2408382,2.2186634 13.1919802,2.22140039 C13.1629802,2.21352695 13.1351613,2.20107107 13.1093841,2.18441815 L13.5424556,1.47928994 L13.1785862,1.57790927 L13.763456,0.786489152 L13.3928896,0.786489152 L14.0023151,0 L24.4942546,0 Z" id="Shape" fill="#BA3838"></path>
                    <path d="M14,0 C13.9202192,0.0665516391 13.838159,0.130638403 13.772055,0.202119793 C13.5783017,0.377125955 13.3891073,0.557061868 13.195354,0.732068031 C13.1064555,0.810944047 13.0084391,0.875030811 12.92182,0.956371703 C12.8352009,1.0377126 12.876231,1.24722702 12.6779188,1.26201627 C12.6414476,1.26201627 12.6277709,1.48385507 12.5912997,1.59970421 C12.5662258,1.67611536 12.6596832,1.87084052 12.4499738,1.78949963 C12.4179695,1.86749157 12.3986896,1.95088479 12.3929875,2.03598718 C12.41148,2.24846675 12.373523,2.46224097 12.2835739,2.65220606 C12.2235581,2.8578053 12.1868188,3.07051538 12.1741603,3.28567907 C11.9690098,3.00714814 11.8094482,2.76066059 11.6179744,2.54621642 C11.5495909,2.46980527 11.4903252,2.19373922 11.2942925,2.41804289 C11.2942925,2.41804289 11.2213501,2.35149125 11.1848789,2.31451812 L10.7289888,1.85112152 L10.6606053,2.08035494 C10.5847046,2.00897272 10.5039351,1.94387986 10.4189836,1.88562978 C10.3095699,1.82154301 10.2297892,1.63914222 10.0474332,1.81414839 C9.99272635,1.86837565 9.79441417,1.75006162 9.6599266,1.71062361 C9.57786639,1.68597486 9.49352673,1.65639635 9.56646914,1.80675376 C9.50835561,1.83454486 9.44700275,1.85361868 9.38411312,1.8634459 C9.06199072,1.87183734 8.74541753,1.95594675 8.45637684,2.10993345 L8.45637684,2.19127434 L9.03307777,2.19127434 L9.08094622,2.28740449 L8.79373549,2.47473503 L8.83248614,2.54128667 L9.83772373,2.61523293 L9.49352673,2.86172048 L10.4053069,2.94799113 C10.3233963,3.15990677 10.1216446,3.28758769 9.91066614,3.26103032 C8.8803546,3.24624106 7.85916086,3.23638156 6.81745206,3.26103032 C6.39319329,3.26688635 5.97156139,3.33403243 5.56375439,3.46068524 C4.09578839,3.95366034 3.35952594,5.30934188 3.51224911,6.88193246 C3.67636953,8.60734533 4.82065359,9.76337195 6.43450441,9.83978309 C7.0909861,9.87429135 7.75202669,9.85457234 8.41078783,9.85703722 L11.0367146,9.85703722 C11.4926047,9.85703722 11.4378978,9.87675622 11.4378978,9.43800838 C11.4378978,8.45205817 11.4515746,7.48336209 11.4378978,6.50727138 C11.4270022,6.21712785 11.5778673,5.94814513 11.8208455,5.82450086 L11.7205497,6.13754005 L11.9188619,6.09070742 C11.7348941,6.58800173 11.6835631,7.13111308 11.7706976,7.65836825 C11.8690376,8.18002227 12.059424,8.67629504 12.3314424,9.12003944 L12.2197493,8.5999507 L12.2653383,8.57530195 L12.4932833,8.91791965 L12.5274751,8.90313039 L12.2357055,7.97140744 L12.2881328,7.93689919 L12.4955628,8.26965738 L12.5274751,8.257333 L12.2881328,7.3009613 L12.4659299,7.46610796 L12.3929875,6.55656889 L12.4499738,6.55656889 L12.5616669,6.74882918 C12.577623,6.72418043 12.5958586,6.7069263 12.5935792,6.69213705 C12.5935792,6.55410402 12.5730641,6.41607099 12.5799025,6.27803796 C12.5799025,6.21641607 12.6323298,6.15972393 12.6619627,6.10056692 C12.7280667,6.16711856 12.8420392,6.03155041 12.8899077,6.2435297 C13.2787402,7.64170982 13.5420937,9.07714749 13.6763181,10.5299482 C13.7948495,11.8437269 13.929337,13.1624353 13.9635288,14.4737491 C13.9931616,15.5730836 13.9065425,16.6773478 13.8404385,17.7766823 C13.7948495,18.5161449 13.6899948,19.2556076 13.6124934,19.9950702 L11.4447362,19.9950702 C11.4447362,19.8570372 11.42878,19.7214691 11.42878,19.583436 C11.42878,17.5408759 11.42878,15.4983157 11.42878,13.4557555 C11.42878,13.1328568 11.42878,13.127927 11.1324515,13.127927 C10.1978769,13.127927 9.2655817,13.127927 8.33100707,13.127927 C8.15049704,13.1138126 7.98142356,13.2244971 7.90930876,13.4039931 C6.77414251,15.5024238 5.63441735,17.5983896 4.49013329,19.6918906 C4.44320511,19.7917194 4.40209481,19.8946233 4.36704298,20 L0.421314485,20 C0.724481377,19.4601923 1.02080992,18.9179196 1.33309461,18.3830417 C2.34972945,16.6181908 3.36788392,14.8549832 4.38755803,13.0934188 C4.44910319,12.9874291 4.50381,12.8789746 4.57903186,12.7434065 L4.19836365,12.6374168 C1.88237769,12.0583734 0.191627989,9.90550374 0.0383668329,7.34039931 C-0.0800251369,6.14603632 0.0765878698,4.93854999 0.494256895,3.82548681 C1.28522615,1.83633227 2.71216205,0.685235396 4.63145921,0.202119793 C4.94830281,0.123243776 5.27198475,0.0665516391 5.59338725,3.58489564e-15 L14,0 Z" id="Shape" fill="#006D8F"></path>
                    <path d="M14.4783522,19.9952073 C14.464291,19.4392523 14.4619475,18.880901 14.4361685,18.317757 C14.3408646,16.221743 14.2400924,14.1257289 14.133852,12.0297148 C14.1228546,11.707903 14.0875969,11.3874381 14.0283928,11.0711718 C13.9365975,10.7961647 14.0744437,10.496242 14.3400834,10.3930026 C14.4115424,10.348883 14.4914879,10.3210889 14.5744373,10.3115265 L14.3400834,10.6086748 L14.3682059,10.6374311 L15.1204819,10.1389887 L15.0876723,10.3354901 L15.8985368,10 L15.9243157,10.0479272 L15.7133972,10.2875629 L16.4164588,10.0479272 L16.3227173,10.2588066 L17,10.2588066 C15.9079109,13.4387731 15.9079109,16.728972 15.8633837,20 L14.4783522,19.9952073 Z" id="Shape" fill="#BA3838"></path>
                    <path d="M14.0157352,10 C13.8350044,8.40358868 13.4939446,6.83931579 13,5.34132361 C13.1866522,5.34132361 13.3429192,5.31005732 13.4970157,5.31266285 C13.6511123,5.31526837 13.7986978,5.34392913 13.9940315,5.36477332 L13.776994,5.13548723 L13.7878459,5.07295466 C13.9224091,5.11464304 14.0569723,5.15112038 14.1893652,5.20062533 C14.321758,5.25013028 14.4693435,5.32047942 14.6082474,5.38301199 L14.6538253,5.31005732 L14.3651655,5.07816571 L14.408573,5 C14.8122626,5.08598228 15.1595225,5.35695675 15.5805751,5.59405941 L15.4047748,5.27618551 C15.9023833,5.51245198 16.3410783,5.89824418 16.6787846,6.39656071 C16.6494367,6.41495319 16.6189631,6.4306318 16.5876289,6.44346014 C16.5449989,6.44710725 16.5022067,6.44710725 16.4595768,6.44346014 L16.8285404,6.99843669 L16.6375475,7.01667535 C16.7018962,7.10073464 16.7579715,7.19340634 16.8046663,7.29286087 C16.8285404,7.36060448 17.0607705,7.46482543 16.8046663,7.53778009 C16.8167921,7.59535697 16.8320167,7.65192879 16.8502442,7.70713913 C16.8979924,7.82699323 16.9500814,7.94424179 17,8.06409588 C16.8741183,8.11099531 16.8741183,8.11099531 16.8589257,8.58520063 C16.0710798,7.59249609 15.098752,7.43877019 14.0591427,7.58989057 C14.1546392,7.58989057 14.252306,7.58989057 14.3478025,7.61594581 C14.4612429,7.63022322 14.5704164,7.6756938 14.6668475,7.74882751 L14.1546392,7.87128713 L15.1465003,7.98071912 L15.1465003,8.04846274 L14.8621812,8.14226159 L14.8621812,8.18394997 L15.6521975,8.36894216 L15.6521975,8.40281397 L15.4351601,8.46274101 L16.2490505,8.79885357 L16.2490505,8.86138614 L15.9777537,8.90568004 L16.5680955,9.23658155 L16.5529029,9.27045336 C16.3966359,9.2417926 16.2425393,9.20531527 16.0862724,9.18186555 C15.6287902,9.13470918 15.1690545,9.23358566 14.7536625,9.46847316 C14.497757,9.62497798 14.2511909,9.8025788 14.0157352,10 L14.0157352,10 Z" id="Shape" fill="#BA3838"></path>
                </g>
            </g>
        </g>
    </g>
</svg>