<?xml version="1.0" encoding="UTF-8"?>
<svg width="479px" height="485px" viewBox="0 0 479 485" version="1.1" xmlns="http://www.w3.org/2000/svg" xmlns:xlink="http://www.w3.org/1999/xlink">
    <!-- Generator: Sketch 46.2 (44496) - http://www.bohemiancoding.com/sketch -->
    <title>settings</title>
    <desc>Created with Sketch.</desc>
    <defs></defs>
    <g id="Page-1" stroke="none" stroke-width="1" fill="none" fill-rule="evenodd">
        <g id="settings" fill-rule="nonzero">
            <path d="M454.2,195.101 L420.6,189.401 C417.1,178.101 412.6,167.201 407.1,156.801 L426.9,129.101 C435.3,117.301 434,101.201 423.7,91.001 L393.9,61.201 C388.3,55.601 380.9,52.501 373,52.501 C366.8,52.501 360.9,54.401 355.9,58.001 L328.1,77.801 C317.3,72.101 306,67.401 294.3,63.901 L288.7,30.701 C286.3,16.401 274,6.001 259.5,6.001 L217.4,6.001 C202.9,6.001 190.6,16.401 188.2,30.701 L182.4,64.701 C171.2,68.201 160.3,72.801 149.9,78.401 L122.4,58.601 C117.4,55.001 111.4,53.101 105.2,53.101 C97.3,53.101 89.8,56.201 84.3,61.801 L54.4,91.601 C44.2,101.801 42.8,117.901 51.2,129.701 L71.2,157.801 C65.7,168.301 61.3,179.201 57.9,190.501 L24.7,196.101 C10.4,198.501 -2.84217094e-14,210.801 -2.84217094e-14,225.301 L-2.84217094e-14,267.401 C-2.84217094e-14,281.901 10.4,294.201 24.7,296.601 L58.7,302.401 C62.2,313.601 66.8,324.501 72.4,334.901 L52.7,362.301 C44.3,374.101 45.6,390.201 55.9,400.401 L85.7,430.201 C91.3,435.801 98.7,438.901 106.6,438.901 C112.8,438.901 118.7,437.001 123.7,433.401 L151.8,413.401 C161.9,418.701 172.5,423.001 183.4,426.401 L189,460.001 C191.4,474.301 203.7,484.701 218.2,484.701 L260.4,484.701 C274.9,484.701 287.2,474.301 289.6,460.001 L295.3,426.401 C306.6,422.901 317.5,418.401 327.9,412.901 L355.6,432.701 C360.6,436.301 366.6,438.201 372.8,438.201 L372.8,438.201 C380.7,438.201 388.1,435.101 393.7,429.501 L423.5,399.701 C433.7,389.501 435.1,373.401 426.7,361.601 L406.9,333.801 C412.4,323.301 417,312.401 420.4,301.201 L454,295.601 C468.3,293.201 478.7,280.901 478.7,266.401 L478.7,224.301 C478.9,209.801 468.5,197.501 454.2,195.101 Z M451.9,266.401 C451.9,267.701 451,268.801 449.7,269.001 L407.7,276.001 C402.4,276.901 398.2,280.801 396.9,285.901 C393.1,300.601 387.3,314.701 379.5,327.801 C376.8,332.401 377,338.101 380.1,342.501 L404.8,377.301 C405.5,378.301 405.4,379.801 404.5,380.701 L374.7,410.501 C374,411.201 373.3,411.301 372.8,411.301 C372.2,411.301 371.7,411.101 371.3,410.801 L336.6,386.101 C332.3,383.001 326.5,382.801 321.9,385.501 C308.8,393.301 294.7,399.101 280,402.901 C274.8,404.201 270.9,408.501 270.1,413.701 L263,455.701 C262.8,457.001 261.7,457.901 260.4,457.901 L218.3,457.901 C217,457.901 215.9,457.001 215.7,455.701 L208.7,413.701 C207.8,408.401 203.9,404.201 198.8,402.901 C184.5,399.201 170.7,393.501 157.8,386.101 C155.7,384.901 153.3,384.301 151,384.301 C148.3,384.301 145.5,385.101 143.2,386.801 L108.2,411.701 C107.7,412.001 107.2,412.201 106.7,412.201 C106.3,412.201 105.5,412.101 104.8,411.401 L75,381.601 C74.1,380.701 74,379.301 74.7,378.201 L99.3,343.701 C102.4,339.301 102.6,333.501 99.9,328.901 C92.1,315.901 86.1,301.801 82.3,287.101 C80.9,282.001 76.7,278.101 71.5,277.201 L29.2,270.001 C27.9,269.801 27,268.701 27,267.401 L27,225.301 C27,224.001 27.9,222.901 29.2,222.701 L70.9,215.701 C76.2,214.801 80.5,210.901 81.8,205.701 C85.5,191.001 91.2,176.801 98.9,163.701 C101.6,159.101 101.3,153.401 98.2,149.101 L73.3,114.101 C72.6,113.101 72.7,111.601 73.6,110.701 L103.4,80.901 C104.1,80.201 104.8,80.101 105.3,80.101 C105.9,80.101 106.4,80.301 106.8,80.601 L141.3,105.201 C145.7,108.301 151.5,108.501 156.1,105.801 C169.1,98.001 183.2,92.001 197.9,88.201 C203,86.801 206.9,82.601 207.8,77.401 L215,35.101 C215.2,33.801 216.3,32.901 217.6,32.901 L259.7,32.901 C261,32.901 262.1,33.801 262.3,35.101 L269.3,76.801 C270.2,82.101 274.1,86.401 279.3,87.701 C294.4,91.501 308.8,97.401 322.2,105.301 C326.8,108.001 332.5,107.801 336.9,104.701 L371.4,79.901 C371.9,79.601 372.4,79.401 372.9,79.401 C373.3,79.401 374.1,79.501 374.8,80.201 L404.6,110.001 C405.5,110.901 405.6,112.301 404.9,113.401 L380.2,148.101 C377.1,152.401 376.9,158.201 379.6,162.801 C387.4,175.901 393.2,190.001 397,204.701 C398.3,209.901 402.6,213.801 407.8,214.601 L449.8,221.701 C451.1,221.901 452,223.001 452,224.301 L452,266.401 L451.9,266.401 L451.9,266.401 Z" id="Shape" fill="#9E9B9B"></path>
            <path d="M454.2,189.101 L420.6,183.401 C417.1,172.101 412.6,161.201 407.1,150.801 L426.9,123.101 C435.3,111.301 434,95.201 423.7,85.001 L393.9,55.201 C388.3,49.601 380.9,46.501 373,46.501 C366.8,46.501 360.9,48.401 355.9,52.001 L328.1,71.801 C317.3,66.101 306,61.401 294.3,57.901 L288.7,24.701 C286.3,10.401 274,0.001 259.5,0.001 L217.4,0.001 C202.9,0.001 190.6,10.401 188.2,24.701 L182.4,58.701 C171.2,62.201 160.3,66.801 149.9,72.401 L122.4,52.601 C117.4,49.001 111.4,47.101 105.2,47.101 C97.3,47.101 89.8,50.201 84.3,55.801 L54.4,85.601 C44.2,95.801 42.8,111.901 51.2,123.701 L71.2,151.801 C65.7,162.301 61.3,173.201 57.9,184.501 L24.7,190.101 C10.4,192.501 -2.84217094e-14,204.801 -2.84217094e-14,219.301 L-2.84217094e-14,261.401 C-2.84217094e-14,275.901 10.4,288.201 24.7,290.601 L58.7,296.401 C62.2,307.601 66.8,318.501 72.4,328.901 L52.7,356.301 C44.3,368.101 45.6,384.201 55.9,394.401 L85.7,424.201 C91.3,429.801 98.7,432.901 106.6,432.901 C112.8,432.901 118.7,431.001 123.7,427.401 L151.8,407.401 C161.9,412.701 172.5,417.001 183.4,420.401 L189,454.001 C191.4,468.301 203.7,478.701 218.2,478.701 L260.4,478.701 C274.9,478.701 287.2,468.301 289.6,454.001 L295.3,420.401 C306.6,416.901 317.5,412.401 327.9,406.901 L355.6,426.701 C360.6,430.301 366.6,432.201 372.8,432.201 L372.8,432.201 C380.7,432.201 388.1,429.101 393.7,423.501 L423.5,393.701 C433.7,383.501 435.1,367.401 426.7,355.601 L406.9,327.801 C412.4,317.301 417,306.401 420.4,295.201 L454,289.601 C468.3,287.201 478.7,274.901 478.7,260.401 L478.7,218.301 C478.9,203.801 468.5,191.501 454.2,189.101 Z M451.9,260.401 C451.9,261.701 451,262.801 449.7,263.001 L407.7,270.001 C402.4,270.901 398.2,274.801 396.9,279.901 C393.1,294.601 387.3,308.701 379.5,321.801 C376.8,326.401 377,332.101 380.1,336.501 L404.8,371.301 C405.5,372.301 405.4,373.801 404.5,374.701 L374.7,404.501 C374,405.201 373.3,405.301 372.8,405.301 C372.2,405.301 371.7,405.101 371.3,404.801 L336.6,380.101 C332.3,377.001 326.5,376.801 321.9,379.501 C308.8,387.301 294.7,393.101 280,396.901 C274.8,398.201 270.9,402.501 270.1,407.701 L263,449.701 C262.8,451.001 261.7,451.901 260.4,451.901 L218.3,451.901 C217,451.901 215.9,451.001 215.7,449.701 L208.7,407.701 C207.8,402.401 203.9,398.201 198.8,396.901 C184.5,393.201 170.7,387.501 157.8,380.101 C155.7,378.901 153.3,378.301 151,378.301 C148.3,378.301 145.5,379.101 143.2,380.801 L108.2,405.701 C107.7,406.001 107.2,406.201 106.7,406.201 C106.3,406.201 105.5,406.101 104.8,405.401 L75,375.601 C74.1,374.701 74,373.301 74.7,372.201 L99.3,337.701 C102.4,333.301 102.6,327.501 99.9,322.901 C92.1,309.901 86.1,295.801 82.3,281.101 C80.9,276.001 76.7,272.101 71.5,271.201 L29.2,264.001 C27.9,263.801 27,262.701 27,261.401 L27,219.301 C27,218.001 27.9,216.901 29.2,216.701 L70.9,209.701 C76.2,208.801 80.5,204.901 81.8,199.701 C85.5,185.001 91.2,170.801 98.9,157.701 C101.6,153.101 101.3,147.401 98.2,143.101 L73.3,108.101 C72.6,107.101 72.7,105.601 73.6,104.701 L103.4,74.901 C104.1,74.201 104.8,74.101 105.3,74.101 C105.9,74.101 106.4,74.301 106.8,74.601 L141.3,99.201 C145.7,102.301 151.5,102.501 156.1,99.801 C169.1,92.001 183.2,86.001 197.9,82.201 C203,80.801 206.9,76.601 207.8,71.401 L215,29.101 C215.2,27.801 216.3,26.901 217.6,26.901 L259.7,26.901 C261,26.901 262.1,27.801 262.3,29.101 L269.3,70.801 C270.2,76.101 274.1,80.401 279.3,81.701 C294.4,85.501 308.8,91.401 322.2,99.301 C326.8,102.001 332.5,101.801 336.9,98.701 L371.4,73.901 C371.9,73.601 372.4,73.401 372.9,73.401 C373.3,73.401 374.1,73.501 374.8,74.201 L404.6,104.001 C405.5,104.901 405.6,106.301 404.9,107.401 L380.2,142.101 C377.1,146.401 376.9,152.201 379.6,156.801 C387.4,169.901 393.2,184.001 397,198.701 C398.3,203.901 402.6,207.801 407.8,208.601 L449.8,215.701 C451.1,215.901 452,217.001 452,218.301 L452,260.401 L451.9,260.401 L451.9,260.401 Z" id="Shape" fill="#FFFFFF"></path>
            <path d="M239.4,142.001 C182.4,142.001 136.1,188.301 136.1,245.301 C136.1,302.301 182.4,348.601 239.4,348.601 C296.4,348.601 342.7,302.301 342.7,245.301 C342.7,188.301 296.4,142.001 239.4,142.001 Z M239.4,321.601 C197.3,321.601 163.1,287.401 163.1,245.301 C163.1,203.201 197.3,169.001 239.4,169.001 C281.5,169.001 315.7,203.201 315.7,245.301 C315.7,287.401 281.5,321.601 239.4,321.601 Z" id="Shape" fill="#9E9B9B"></path>
            <path d="M239.4,136.001 C182.4,136.001 136.1,182.301 136.1,239.301 C136.1,296.301 182.4,342.601 239.4,342.601 C296.4,342.601 342.7,296.301 342.7,239.301 C342.7,182.301 296.4,136.001 239.4,136.001 Z M239.4,315.601 C197.3,315.601 163.1,281.401 163.1,239.301 C163.1,197.201 197.3,163.001 239.4,163.001 C281.5,163.001 315.7,197.201 315.7,239.301 C315.7,281.401 281.5,315.601 239.4,315.601 Z" id="Shape" fill="#FFFFFF"></path>
        </g>
    </g>
</svg>