<svg id="master-artboard" xmlns="http://www.w3.org/2000/svg" viewBox="0 0 717.59 119.14"><defs><style>.cls-1{fill:#08507f;}.cls-2{fill:#ff0101;}.cls-3{fill: #0078B8;}.cls-4{fill:#262626;}.cls-5{fill:#fff;}</style></defs><title>presentation-footer</title><g id="_56yhZ1.tif" data-name=" 56yhZ1.tif"><path class="cls-1" d="M630,48.31c.06,0,.09-.05.12-.1a11.41,11.41,0,0,1,1.25-2.4c.79-1.26,1.72-2.42,2.62-3.61l.24-.33a2.91,2.91,0,0,0-.5.16c-.07,0-.16.09-.22,0s0-.14.06-.2a11.15,11.15,0,0,1,.79-.89A13.5,13.5,0,0,1,636.6,39a.82.82,0,0,0,.25-.24h-.6a4.51,4.51,0,0,1,1.68-1.35,8.17,8.17,0,0,1,2-.74c0-.14-.11-.08-.16-.09h-.55c-.13,0-.15-.07-.08-.18a1.22,1.22,0,0,1,.37-.3,7.63,7.63,0,0,1,4.15-1.2.34.34,0,0,0,.2,0c0-.11-.08-.1-.13-.11l-.79-.2c-.06,0-.12,0-.13-.09s0-.1.1-.12l.45-.14a4.86,4.86,0,0,1,1.9,0l1.3.18c-.42-.21-.85-.27-1.25-.48.22-.17.46-.1.74-.22l-3-1.36a2,2,0,0,1,1.23-.4c.4,0,.79.07,1.18.1l1.22.11a.3.3,0,0,0,.2,0,2.16,2.16,0,0,0-.65-.26,36.13,36.13,0,0,0-3.85-1l-1-.2a.33.33,0,0,1-.31-.17c.09-.13.23-.12.37-.14a12,12,0,0,1,2.87.13,9.83,9.83,0,0,0,1.32.13,1.32,1.32,0,0,0-.4-.34A8,8,0,0,0,643,29.23c-1.15-.33-2.32-.54-3.48-.81a.58.58,0,0,1-.36-.17c.13-.15.3-.11.45-.1a29.32,29.32,0,0,1,3,.36c.79.14,1.58.33,2.35.53,0,0,.11,0,.17,0a1,1,0,0,0-.07-.15c-.36-.48-.74-.94-1.1-1.43a1.22,1.22,0,0,0-.79-.43l-2.28-.4a.67.67,0,0,1-.31-.1l.65-1.24-1.69-.16L637.88,25a1,1,0,0,1-.29-.07.48.48,0,0,1-.36-.58.52.52,0,0,1,.17-.27l.29-.26-1.05-.1-1.56-.09a2.44,2.44,0,0,0-.54,0,.47.47,0,0,1-.56-.35.46.46,0,0,1,0-.26.72.72,0,0,1,.3-.44l.52-.43.11-.11a.56.56,0,0,0-.36-.05h-2.15c-.34,0-.47-.07-.54-.3a.63.63,0,0,1,.29-.74,12,12,0,0,1,4.73-1.32h.17c.18,0,.22-.07.22-.24,0-.51.21-.68.71-.59s1.24.26,1.85.4c.27.07.27.07.41-.19a.41.41,0,0,1,.6-.24,5.57,5.57,0,0,1,.89.42l1.15.66.08-.06c.34-.42.5-.46,1-.21a5.41,5.41,0,0,1,1.2.87c.34.31.65.63,1,.95.1.11.17.16.31.06a.6.6,0,0,1,.7,0,3.17,3.17,0,0,1,.34.28L648.85,23a6.84,6.84,0,0,1,1.24,1.44c.13.2.15.19.34.06a.58.58,0,0,0,.31-.53V22.58c0-.28,0-.54.38-.64.16,0,.18-.19.19-.33v-.78a7,7,0,0,1,.17-1.76c.08-.33.17-.4.52-.38s.27,0,.33-.23c.12-.5.22-1,.37-1.52s.23-.53.65-.5a.42.42,0,0,0,.37-.26l.54-.9.22-.34a.64.64,0,0,1,.7-.32.34.34,0,0,0,.37-.17,8,8,0,0,1,1.92-1.75c.07-.06.17-.09.2-.18a1.09,1.09,0,0,1,.54-.54,2.11,2.11,0,0,0,.31-.21,1.19,1.19,0,0,1,1.21-.24,1.22,1.22,0,0,0,.92,0,.52.52,0,0,1,.21,0,.19.19,0,0,1,.22.14.43.43,0,0,1,0,0,1,1,0,0,1-.33,1,16.16,16.16,0,0,0-1.84,1.86.48.48,0,0,0-.19.26.73.73,0,0,0,.36,0,.85.85,0,0,1,.69.11.35.35,0,0,1,.23.45.3.3,0,0,1-.06.11,1.29,1.29,0,0,1-.22.3l-1.36,1.63a1,1,0,0,0-.2.29c.09,0,.17,0,.25,0a.45.45,0,0,1,.46.16.46.46,0,0,1,.08.51,2.36,2.36,0,0,1-.2.31l-1.58,2.1c0,.06.09.09.16.11a.54.54,0,0,1,.29.71v0a2.07,2.07,0,0,1-.15.34l-.83,1.79a.3.3,0,0,0,.08.08.75.75,0,0,1,.41.9A9.14,9.14,0,0,0,657,26v.17a.84.84,0,0,0,.18-.11l1-1.08a.82.82,0,0,1,.81-.32.39.39,0,0,0,.37-.13,9.15,9.15,0,0,1,2.89-1.81.54.54,0,0,1,.51-.05c.14.07.26,0,.39-.08a25.63,25.63,0,0,1,2.53-1.08.5.5,0,0,1,.57.07.36.36,0,0,0,.37.06l2.46-.67a6.82,6.82,0,0,1,1.1-.18c.33,0,.38,0,.51.32s.11.24.35.21a22.9,22.9,0,0,1,6.51.06l1.17.17a.52.52,0,0,1,.52.53.61.61,0,0,1-.08.26.44.44,0,0,1-.48.29h-1.16a27.57,27.57,0,0,0-3.4.08.41.41,0,0,0-.33.13l1.18.3a5.89,5.89,0,0,1,.9.29,1,1,0,0,1,.29.18.49.49,0,0,1,0,.68.39.39,0,0,1-.19.12.94.94,0,0,1-.47.06c-1.29,0-2.59,0-3.87,0a2.11,2.11,0,0,0-.56.09c0,.11.05.11.11.12l.34.08a.52.52,0,0,1,.4.62.51.51,0,0,1-.4.41c-.44.07-.88.1-1.32.17l-3.1.48c-.06.1,0,.14,0,.2a.57.57,0,0,1-.12.8.55.55,0,0,1-.25.1c-.58.16-1.16.3-1.74.47a16,16,0,0,0-1.81.47.61.61,0,0,0-.32.19h.53a.42.42,0,0,1,.48.39.5.5,0,0,1-.28.62c-.26.11-.53.19-.8.28l-.37.13a.56.56,0,0,0,.47.1l1.69-.18a.51.51,0,0,1,.61.29c.09.18.26.19.44.19a9,9,0,0,1,2.48.35l.74.23a.64.64,0,0,1,.47.36c.06.13.18.15.31.18a7.58,7.58,0,0,1,1.74.46,6.43,6.43,0,0,1,.79.39,1,1,0,0,1,.45.54.51.51,0,0,0,.31.33,14.6,14.6,0,0,1,2.72,1.48,2.59,2.59,0,0,1,.33.93,5.38,5.38,0,0,1-.55-.52,1,1,0,0,0-.74-.29.43.43,0,0,0-.45.4v0a1.22,1.22,0,0,0,.11.56,5.66,5.66,0,0,0,1,1.7c.2.23.38.48.57.74,0,.07.15.12.12.24l-1.79-.18c.31.28.56.5.79.74a4.33,4.33,0,0,1,.68.74,1.82,1.82,0,0,0-.5.16c-.78-.47-1.59-.88-2.38-1.32a.25.25,0,0,0-.36,0l0,0a.5.5,0,0,1-.85,0l-.95-1.19a1.61,1.61,0,0,0-.74-.45,1,1,0,0,1-.08.33.39.39,0,0,1-.46.32h0a1.57,1.57,0,0,1-.44-.18c-.5-.26-1-.52-1.48-.74-.65-.32-1.28-.68-2-.94-.06,0-.12-.09-.21,0s.12.14.18.2a2.22,2.22,0,0,1,.39.47.5.5,0,0,1,.08.51c-.11.2-.31.2-.51.2a1.2,1.2,0,0,1-.46-.11l-1.85-.74a6.92,6.92,0,0,0-.86-.33v.25c0,.36-.13.49-.5.49a2.5,2.5,0,0,1-.54,0c-1.16-.13-2.32-.19-3.49-.26h-.44c-.12,0-.18.08-.15.21s0,.11.06.16c.85,2.22,1.48,4.51,2.22,6.77a25.18,25.18,0,0,1,.74,2.67l1.4,6.93c.1.5.22,1,.29,1.48s.15,1.28.22,1.92a5.55,5.55,0,0,1-.84.43l-.46.22c-.27.15-.38.35-.33.57s.24.35.55.35a1.31,1.31,0,0,0,.28,0l.94-.14.06.32a1,1,0,0,1-.16.12,16.63,16.63,0,0,1-1.79.9c-.43.19-.88.37-1.3.58a.5.5,0,0,0-.26.65.49.49,0,0,0,.62.27,1.28,1.28,0,0,0,.35-.11c.9-.27,1.78-.58,2.66-.92.18,1.41.32,2.83.43,4.25.14,1.9.3,3.8.44,5.7.11,1.47.2,3,.31,4.43.17,2.54.27,5.07.37,7.61.08,1.9.14,3.8.17,5.71.1,4.93.11,9.86.13,14.78a9.16,9.16,0,0,1-.27,2c0,.22-.09.25-.37.25h-6.49c-.29,0-.28,0-.34-.29a1.33,1.33,0,0,1,0-.79,5,5,0,0,0,.23-1.27l.81-7.19c.18-1.65.38-3.31.5-5s.3-3.45.44-5.17c0-.49.06-1,.07-1.48.06-2.25.18-4.51.17-6.76,0-1-.1-2-.18-3.05-.06-.81-.11-1.61-.16-2.41-.1-1.86-.24-3.7-.4-5.56-.13-1.59-.28-3.18-.43-4.77s-.37-3.47-.65-5.18c-.09-.61-.15-1.23-.22-1.85-.12-1.13-.32-2.22-.52-3.36a96.33,96.33,0,0,0-2.38-9.9l0-.13c-.07-.23-.07-.23-.3-.16-.41.12-.42.14-.37.57s.11.86.18,1.28a1,1,0,0,1-.07.57.4.4,0,0,1-.47.32.51.51,0,0,1-.17-.07c-.06,0-.12-.11-.23-.11a7.67,7.67,0,0,0,.17,1.17c.06.39.22.84.26,1.27a1.5,1.5,0,0,1,0,.3.39.39,0,0,1-.3.36.58.58,0,0,0-.25.09c.1.4.22.79.35,1.18s.33.94.48,1.41a1.38,1.38,0,0,1,.1.4c0,.33-.09.44-.42.48h-.41a3.15,3.15,0,0,0,.25.73l.87,1.85a1.22,1.22,0,0,1,.13.45.37.37,0,0,1-.3.43.47.47,0,0,1-.17,0,.83.83,0,0,1-.49-.33l-.39-.36c-.05.1,0,.16,0,.22.27.63.56,1.24.88,1.84.13.27.28.53.4.79a.48.48,0,1,1-.82.51,4.18,4.18,0,0,1-.5-.69l-1.16-2a14.35,14.35,0,0,1-1.12-2.42,1.27,1.27,0,0,0-.51-.7,1,1,0,0,1-.38-.55,6.78,6.78,0,0,1-.41-1.95.78.78,0,0,0-.23-.55.78.78,0,0,1-.21-.52c0-.58,0-1.15-.07-1.73a.58.58,0,0,0-.13-.44.54.54,0,0,1-.1-.39,7.62,7.62,0,0,1,.31-2.33.6.6,0,0,0,0-.49,1.19,1.19,0,0,1,0-.83c-.2,0-.37-.11-.56,0s-.14,0-.19-.08l-.54-.63c-.12,0-.1.14-.18.17s-.06-.17-.14-.23l-.09.08a2.63,2.63,0,0,1-.64.56c-.07,0-.15.1-.21,0s0-.17,0-.24a11.12,11.12,0,0,1,1.48-1.43,1.08,1.08,0,0,0,.41-.44.2.2,0,0,0,0-.23,2.86,2.86,0,0,0-.68.39l-2.79,2.06a.78.78,0,0,1-.46.21,14.71,14.71,0,0,1,1.72-2.49c-.07-.11-.13-.05-.19,0a2.5,2.5,0,0,0-.53.3,33.57,33.57,0,0,0-4.36,3.52,2.75,2.75,0,0,1-.26.22s-.1.07-.16,0a.18.18,0,0,1-.05-.19c0-.08.08-.16.13-.24L641,39.9a.37.37,0,0,0,.16-.21c-.11,0-.16.07-.22.13a5.58,5.58,0,0,0-1,.86c-1,1-2,2.13-2.89,3.23-.28.32-.54.66-.83,1,0,0-.09.12-.17.07s-.06-.12,0-.19a13.77,13.77,0,0,1,1.22-2.5,7.69,7.69,0,0,0,.49-.84,6,6,0,0,0-1.23,1.13,38.1,38.1,0,0,0-3.48,4.73c-.1.16-.17.35-.4.41a.64.64,0,0,1,0-.43,10.67,10.67,0,0,1,1-2.33c.24-.4.45-.81.66-1.22,0-.06.09-.11,0-.2a.85.85,0,0,0-.37.21,8.3,8.3,0,0,0-1.77,1.78c-.67.89-1.27,1.82-1.91,2.73-.12.16-.21.35-.43.41Z" transform="translate(-11.42 -11.46)"/><path class="cls-2" d="M662.38,59.94c-.88.33-1.77.64-2.66.92a1.65,1.65,0,0,0-.36.11.49.49,0,0,1-.35-.92c.43-.21.86-.39,1.3-.58.61-.26,1.2-.58,1.79-.9a.83.83,0,0,0,.16-.12,2.07,2.07,0,0,0,.79-.51,5.08,5.08,0,0,0-.86.19l-.93.15H661a.51.51,0,0,1-.55-.36c-.06-.22.06-.42.33-.57l.46-.22a5.55,5.55,0,0,0,.84-.43c.74-.31,1.38-.67,2.07-1,.08,0,.16-.08.14-.2s-.13-.08-.21-.07a.43.43,0,0,1-.51-.3.41.41,0,0,1,.13-.56h0l.26-.18,1.16-.74c.06,0,.12-.11.22-.08l.1.12c.13.15.22.15.34,0a.76.76,0,0,0,.09-.18.32.32,0,0,1,.21-.25,11.3,11.3,0,0,1,1.88-.74.91.91,0,0,0,.56-.3.46.46,0,0,1,.24-.12,7.86,7.86,0,0,1,2.31-.37.36.36,0,0,0,.33-.13.67.67,0,0,1,.59-.26.86.86,0,0,0,.39,0,.74.74,0,0,1,.2-1l-.39-.12-1.83-.5c-.27-.07-.51-.18-.52-.53s-.14-.31-.39-.34l-2.29-.28-.31,0a.55.55,0,0,1-.41-.66.51.51,0,0,1,.07-.17s.1-.1.1-.18a.79.79,0,0,0-.43-.06h-2.45c-.38,0-.54-.13-.57-.44a.49.49,0,0,1,.43-.61.57.57,0,0,0,.22-.07c.12,0,.27,0,.35-.18h-.23l-2-.11c-.38,0-.52-.18-.51-.56a.42.42,0,0,1,.35-.47h0a1.17,1.17,0,0,1,.46-.06h.54c.36-.05.74-.09,1.08-.11,1-.05,2.06,0,3.09,0,.12,0,.26.06.37-.09a.52.52,0,0,1,.57-.17c.77.15,1.53.32,2.29.51a.53.53,0,0,0,.46,0,.36.36,0,0,1,.35,0,8.59,8.59,0,0,1,1.7.67,1.39,1.39,0,0,0,.84.23.5.5,0,0,1,.26.08,7.33,7.33,0,0,1,1.9,1.22.7.7,0,0,0,.19.15c.25.1.51.18.74.28a6.58,6.58,0,0,1,.69.55,6.05,6.05,0,0,0-.09-.67.65.65,0,0,1,.18-.59.26.26,0,0,0,.07-.36v0c-.18-.35-.34-.73-.52-1.07a.7.7,0,0,1,0-.74c.13-.17.07-.27,0-.4L676,43a.5.5,0,0,1,0-.68.21.21,0,0,1,.08-.06l.21-.17a.65.65,0,0,0-.15-.23l-.74-.9a.69.69,0,0,1-.11-.88,1.77,1.77,0,0,1,.51-.15,4.78,4.78,0,0,0-.68-.74l-.8-.74,1.76.18c0-.12-.07-.17-.12-.24-.19-.24-.37-.49-.58-.74A6,6,0,0,1,674.29,36a1.38,1.38,0,0,1-.12-.56.44.44,0,0,1,.42-.45h0a1,1,0,0,1,.74.29,4.51,4.51,0,0,0,.55.52,3,3,0,0,0-.33-.93c-.17-.46-.41-.88-.62-1.32s-.4-.81-.6-1.22a2.92,2.92,0,0,1-.14-.31.6.6,0,0,1,.21-.74.67.67,0,0,1,.81.12,4.83,4.83,0,0,1,.51.68c.79,1.34,1.59,2.69,2.32,4.07.29.62.55,1.24.78,1.88a1.44,1.44,0,0,0,.52.74,1.76,1.76,0,0,1,.54.64,8.34,8.34,0,0,0,.63,1,1.54,1.54,0,0,1,.28,1.37,2.06,2.06,0,0,0,.2,1.12.38.38,0,0,0,.26.2c.27.06.34.26.38.5a8.84,8.84,0,0,1,.05,1.36.64.64,0,0,0,.21.58.76.76,0,0,1,.2.56,6.48,6.48,0,0,0,.06.77.67.67,0,0,0,0,.2c0,.17.11.2.27.11l.23-.2c.58-.58,1.16-1.15,1.73-1.73a.81.81,0,0,1,.63-.28.46.46,0,0,0,.53-.37v0c0-.14.11-.17.23-.19.68-.06.68-.06,1.07.5a.74.74,0,0,1,.11.78c-.44,1.13-.84,2.27-1.27,3.4a.47.47,0,0,1-.13.25c-.2,0-.29-.26-.52-.34a3.82,3.82,0,0,0,.34.74.28.28,0,0,0,.35.14l.52-.16a1.14,1.14,0,0,1,.45,0c-.13.38-.54.49-.74.88a10.33,10.33,0,0,1,1.6-.61,5.88,5.88,0,0,1,1.67-.2,5.3,5.3,0,0,1,1.64.1c-.08.27-.32.29-.45.43s-.11,0-.1.06.1,0,.15,0a7.82,7.82,0,0,1,3.63.11.68.68,0,0,1,.43.19c-.19.17-.45.18-.65.32.08.13.21.1.32.11a10,10,0,0,1,1.72.24,14.45,14.45,0,0,1,2.31.74c.1,0,.21.08.24.22-.23.14-.5.07-.74.12,0,.14.11.17.2.2a23.19,23.19,0,0,1,4.32,2.22A2,2,0,0,0,703,55a1.31,1.31,0,0,1,.69.4,6.83,6.83,0,0,0,.78.83v.13a.84.84,0,0,1-.58-.14,1,1,0,0,0-.57-.2h-2.13c.12.36.54.48.59.86-.15.09-.26,0-.38,0l-.58-.36a.42.42,0,0,0-.31-.07l-2.6.32a.34.34,0,0,0-.23.08l.65.3a.63.63,0,0,1-.42.12,12.12,12.12,0,0,1-2.41-.07c-.49-.07-1-.16-1.48-.28.09.23.31.28.4.46a.53.53,0,0,1-.39,0,7.72,7.72,0,0,1-3-.91l-.27-.14c-.07,0-.11-.12-.23-.08a.39.39,0,0,0,.17.14c.11.18.34.25.43.49a.86.86,0,0,1-.45,0,9.44,9.44,0,0,1-1.72-.59l-.3-.14c0,.17.12.2.19.26A7.6,7.6,0,0,1,690.45,58c.06.08.15.16.15.26a1.14,1.14,0,0,0,.36.64,14.78,14.78,0,0,1,1.07,1.4.45.45,0,0,1,.09.39.64.64,0,0,0,.11.48c.37.66.74,1.34,1,2a.66.66,0,0,1,0,.64.64.64,0,0,0,0,.57,7.25,7.25,0,0,1,.39,1.54,4.36,4.36,0,0,1,0,1.25.53.53,0,0,1-.57.47h0a.45.45,0,0,1-.43-.28.94.94,0,0,0-.2-.35c-.07.06-.07.14-.11.21a1.09,1.09,0,0,1-.27.42c-.43.36-.74.17-.82-.22s-.17-.94-.26-1.4a3.3,3.3,0,0,0-.15-.62.22.22,0,0,0-.19.06c-.47.26-.74.17-.93-.32l-.9-2.17-.07-.15c-.11-.25-.11-.26-.38-.22a.61.61,0,0,1-.64-.34l-1-1.64c-.06-.11-.1-.23-.23-.28s-.1.1-.14.15a.55.55,0,0,1-.75.19.5.5,0,0,1-.15-.14,1.66,1.66,0,0,1-.22-.3l-.88-1.43a.52.52,0,0,0-.39.48,2,2,0,0,0,0,.85,3.7,3.7,0,0,1,0,1.81,4.25,4.25,0,0,0,0,.8c0,.22-.05.43-.06.65a.75.75,0,0,1-.24.61c-.09.08-.09.22-.12.35-.11.49-.23,1-.34,1.47a.57.57,0,0,1-.37.46c-.16,0-.2.2-.25.34a15.35,15.35,0,0,1-1.88,3.53,2.17,2.17,0,0,1-.24.29.44.44,0,0,1-.53.11.46.46,0,0,1-.28-.46.76.76,0,0,1,.12-.42l.51-1a.12.12,0,0,0,0-.14,1.51,1.51,0,0,1-.34-.08.41.41,0,0,1-.33-.43,1,1,0,0,1,.11-.49c.2-.44.39-.87.59-1.3.07-.15.06-.21-.1-.28-.39-.19-.44-.33-.3-.74s.35-1,.54-1.58c.07-.17.09-.31-.1-.43a.72.72,0,0,1-.17-.68c.07-.39.16-.78.23-1.17s0-.24-.2-.3c-.41-.1-.51-.23-.45-.65a5.4,5.4,0,0,1,.12-.74,1.15,1.15,0,0,0,0-.37.16.16,0,0,0-.16-.16c-.09,0-.09.09-.11.16-.32,1.06-.59,2.13-.84,3.21-.36,1.57-.74,3.13-1,4.71-.19,1-.32,2.06-.44,3.09-.16,1.23-.3,2.45-.44,3.7s-.24,2.32-.31,3.48l-.39,6.32A44.57,44.57,0,0,0,676,89c.07,1.57.16,3.15.31,4.72.12,1.37.23,2.75.37,4.13.19,1.93.34,3.86.7,5.76a5.08,5.08,0,0,1,0,.78.2.2,0,0,1-.23.23h-4.43c-.4,0-.46,0-.57-.42a6,6,0,0,1-.25-1.78c0-3.48,0-7,.12-10.43.08-2.52.18-5,.34-7.54.13-2,.31-3.89.44-5.83.14-2.22.43-4.49.74-6.73a74.18,74.18,0,0,1,3-13.81c.15-.45.34-.89.51-1.33a1.1,1.1,0,0,0,.1-.34.45.45,0,0,0-.25-.05,11.34,11.34,0,0,0-2.4.13,3.05,3.05,0,0,1-.74,0,.43.43,0,0,1-.39-.22c-.12-.2-.15-.21-.38-.11l-1.36.62a1.37,1.37,0,0,1-.45.13c-.41,0-.59-.21-.47-.6a.62.62,0,0,1,.07-.19c-.1-.1-.17,0-.25,0l-1.88.94a.91.91,0,0,1-.58.14.41.41,0,0,0-.3.12,9,9,0,0,1-1,.74c-.28.17-.34.17-.59-.05-.08-.07-.15-.09-.24,0a19.33,19.33,0,0,1-3,1.54,7.39,7.39,0,0,0-.66.42Z" transform="translate(-11.42 -11.46)"/></g><path class="cls-3" d="M729,102.54V101h-.2v-.83l-.87-.42h-.73l-.88.42a1.51,1.51,0,0,0-1.2-.57h-1.56V81.49h-1.93v-.91h-1.08v-.31h-.62l.17-.26v-.1h-.62l.07-.11v-.09h-.09l.09-.15v-.09H717.8V78.21h-.23v-.38h-.19v-.29h-.21v-1H717v-.84h-.24v.84h-.22v1h-.22v.29h-.18v.38h-.23v1.26h-1.75v.09l.09.15h-.09v.09l.07.11h-.62V80l.17.26h-.62v.31H712v.91H710.1V98.8h-1.6v5.14h-.8V73.66l-3.28-5.59h-.54V66.29h-.11v1h-.15V67h-.42v.24H703v.47h-.18v-.18h-.11v.51h-7.05V69h-.25v3.47h-.17V95h-.43v.2h-2.3V95H692V93.54h.11v-.09H692v-.16h-1.6V93.1h.15V93h-.15V92.5H684V89.39h-.93v-.6H683v-.44h-.07v-.6h-.42l-1-.85-1-.9-1,.9-1,.85h-.42v.6H678v.44h-.11v.6H677V92.5h-6.43V93h-.15v.09h.15v.19H669v.16h-.11v.09H669V95h-.51v.2h-.75l-2.13.1v.51h-.24v.09h.24v5.62h-1.93V83.77h-7.1v-.19h-1v.19h-.42v-.3h-.22V83.4H654v.07H652.3V82.25h-.38v-.51h-1.3V80.23h-.07v.15h0V80.2h-.12v-.39h-.06V78.29h.06v-.21h-.13a.61.61,0,0,1-.13-.32c0-.57-.33-1-.73-1s-.73.45-.73,1a.45.45,0,0,1-.12.32h-.13v.21h0v1.52h0v.39h-.13v.18h0v-.15h-.08v1.51h-1.36v.51h-.37v1.53H644.8V98.62h-1.33v5.24h-1.24V78.92h.09v-.2h-.09V74.3h.09v-.07h-4V73h.09v-.07H636.7V72.5h.07v-.08h-1.22V72h-.16v-.22a.13.13,0,0,0-.13-.13h0V69.84h.06v-.08l-.26-.07a.32.32,0,0,0,0-.13,1,1,0,0,0-.82-.81h-.34a.93.93,0,0,0-.82.81,1.23,1.23,0,0,1,0,.13l-.26.07v.08h.06V71.6h0a.13.13,0,0,0-.13.13V72h-.16v.47h-1.22v.08h.07v.38h-1.69V73h.09v1.28h-3.9v.07h.1V97h-1.3V66.85h-.25v-4H624v-.81l-1.52-.42H609.39l-1.51.42V63h-.18V99.91h-1.42V96.62h-1.55V79.81a.17.17,0,0,0,.13-.16v-.82a.19.19,0,0,0-.19-.18h-1.8v-.22H601v.22h-.88V74.39H600v4.26h-.12v-.16a.09.09,0,0,0-.1-.1h-.6a.09.09,0,0,0-.09.1v.16h-.67v-.2h-.8v-.13h-2v.33l-5,0a.18.18,0,0,0-.18.18v.11L581.9,90.1l0,13.62h-.78v-2.46H579v2.2H577.8V99.8h-3.58v2.41h-2v-1.08h-1.76V86.53h-.15v-.27H570v-.73H567.7v.87h-.37V85.31h-7.39v1h-3a.16.16,0,0,0-.15.15v.25a.16.16,0,0,0,.15.15h0v16.66l.15,21.86-19.26,0-372.19-.55L162,118l-.13-5.65h.78l-4.93-4.86v-3h-1.48v2l-4-3.86-9.78,9.72h-1.1v-.92h.79l-4.93-5v-3h-1.49v2.08L134,103.81V79l26.12-2.91-2.59-23.32L75.93,61.81l2.6,23.33,22.78-2.54v33.61L90.66,117l-.55-.54-.39-.7-.15-.69H88.08l.23-.16.24-.38.23-.23.39-.16v-1.39l-2.42-.69-1.17.15-.94.16-.71.15h-.7l-.55-.15-.55-.54.47-.47-.15-.38-.24-.23-.15-.39-.71-.23L80.8,110l-.7-.16-.39.16-.39.23-.24.23-.54.23H77l-.78-.23-.16.23H75.8l-.24.15-.39.16-.15.15v.23l.15.39.39.39-.14.07-1,.54-.16.08V96.21l-1.17.15V93.43l-1.64.15V91.5H69v1.7H66.88v1.08H64.22V93.2H62.58V91.35l-1.72-.16.15,2H59.14l-.16,3-1.33.15v15.43H36.76l-8.29,7H27.14l-8.06-5.63-7.66,6.71V130.6H729ZM103.61,116l-.73,0V112.5l.74.09Zm19.72-4.69v3.16h-2.11v-2.23h.94l-5.08-4.86v-3h-1.49v2l-3.91-3.85-8.8,9.25V82.43l29.59-3.29V102.3l-.69-.67L122,111.35Z" transform="translate(-11.42 -11.46)"/><polygon class="cls-4" points="662.68 84.81 662.68 85.08 662.57 85.08 662.39 84.81 662.68 84.81"/><path class="cls-5" d="M81.4,69.52l0-1.58,6.46-.73,0,1.58-2.39.06.46,4.5.57,3.52-1.91.21-.21-3.32-.59-4.7Zm9.44-2.73.49,5.94.57,3.52L90,76.47l-.21-3.33L89,67.35Zm6.72,4.52.14,0,1.39-5.39,1.89-.16.72,5.84.65,3.48-1.83.21-.34-3.55-.55-3.56-1.12,4.69-1.67.28-2-4.42.28,3.6.5,3.52L93.89,76l-.18-3.32-.58-5.85,2.12-.58Zm6.7,3.53L104,71.52l-.85-6.06,5.1-.58,0,1.47-3.07.35.2,2.42,2.72-.31v1.45l-2.62.3,0,.55.33,2.08,3.29-.37v1.46Zm6.53-3.48a3.35,3.35,0,0,0,2.44.89,1.59,1.59,0,0,0,.93-.39.88.88,0,0,0,.28-.76.89.89,0,0,0-.52-.7A4.59,4.59,0,0,0,112.8,70q-.64-.17-1.29-.39a3.09,3.09,0,0,1-1.14-.71,2.1,2.1,0,0,1-.59-1.28,2.76,2.76,0,0,1,.78-2.23,3.58,3.58,0,0,1,2.32-1.16,5.91,5.91,0,0,1,1.26,0,6.11,6.11,0,0,1,1.2.26l-.7,2.1a4.26,4.26,0,0,0-1.1-.44,3.26,3.26,0,0,0-1.19-.12,1.27,1.27,0,0,0-.77.33.77.77,0,0,0-.24.67.86.86,0,0,0,.52.65,4.77,4.77,0,0,0,1.11.42c.43.11.86.23,1.3.37a2.93,2.93,0,0,1,1.15.7,2.06,2.06,0,0,1,.58,1.27,3,3,0,0,1-.77,2.35,3.52,3.52,0,0,1-4.13,1,4.51,4.51,0,0,1-1.07-.64L109.9,73ZM123.92,63,124.4,69l.57,3.51-1.9.22-.22-3.32-.11-.72-3.65.42,0,.49.56,3.52-1.9.21L117.57,70l-.82-5.79,1.89-.56.32,4,3.58-.41L122,63.59Zm8.76,8.65-1-2.58-3.26.37L128,72.14l-1.76.06.82-3.44,1.16-6.06,2.41-.45,2.42,5.62,1.52,3.28-1.92.53m-3-7.53-.17,0L128.71,68l2.42-.28Zm8.3,3.19-.78.09v.08l.57,3.52-1.82.21-.22-3.33-.85-6.06,3-.33A3,3,0,0,1,140,62a2.44,2.44,0,0,1,1,1.79,2.94,2.94,0,0,1-.27,1.66,3.34,3.34,0,0,1-1.1,1.29l2.74,3.08-1.55,1-2.55-3.54-.28,0M137.46,63l-.66.07.25,3.09L138,66a1.29,1.29,0,0,0,1-.57,2,2,0,0,0,.23-1.32C139.11,63.21,138.53,62.82,137.46,63Zm6.33,7.39L143.58,67,142.72,61l5.1-.58,0,1.47-3.06.34.19,2.42,2.72-.31v1.46l-2.62.3,0,.55.33,2.08,3.29-.37,0,1.45Zm6.53-3.49a3.33,3.33,0,0,0,2.45.9,1.59,1.59,0,0,0,.92-.39.86.86,0,0,0,.28-.76.87.87,0,0,0-.52-.7,4.77,4.77,0,0,0-1.11-.42,12.58,12.58,0,0,1-1.29-.38,3.1,3.1,0,0,1-1.15-.72,2.06,2.06,0,0,1-.58-1.27,2.7,2.7,0,0,1,.78-2.23,3.59,3.59,0,0,1,2.31-1.17,5.9,5.9,0,0,1,1.26,0,5.47,5.47,0,0,1,1.2.26l-.7,2.09a4.13,4.13,0,0,0-1.1-.43,3.26,3.26,0,0,0-1.19-.12,1.27,1.27,0,0,0-.77.33.76.76,0,0,0-.24.67.89.89,0,0,0,.52.65,4.77,4.77,0,0,0,1.11.42c.43.1.87.23,1.3.37a2.69,2.69,0,0,1,1.15.7,2.06,2.06,0,0,1,.58,1.27,3,3,0,0,1-.76,2.35,3.38,3.38,0,0,1-2.27,1.23,3.43,3.43,0,0,1-1.87-.28,4.21,4.21,0,0,1-1.06-.64l-.14-.13Z" transform="translate(-11.42 -11.46)"/></svg>