<?xml version="1.0" encoding="utf-8"?>
<!-- Generator: Adobe Illustrator 22.1.0, SVG Export Plug-In . SVG Version: 6.00 Build 0)  -->
<svg version="1.1" id="Layer_2_1_" xmlns="http://www.w3.org/2000/svg" xmlns:xlink="http://www.w3.org/1999/xlink" x="0px" y="0px"
	 viewBox="0 0 808 363" style="enable-background:new 0 0 808 363;" xml:space="preserve">
<style type="text/css">
	.st0{fill:#E03B3B;}
	.st1{fill:#EF5454;}
	.st2{fill:#C63232;}
	.st3{fill:#A52F2F;}
	.st4{fill:#252828;}
	.st5{fill:#393D3D;}
	.st6{fill:#EFEEED;}
	.st7{fill:#FFA300;}
</style>
<g id="XMLID_72_">
	<g id="XMLID_60_">
		<polygon id="XMLID_34_" class="st0" points="20.3,144.8 744.2,144.8 787.6,242.1 20.3,242.1 		"/>
		<polygon id="XMLID_62_" class="st1" points="752.7,164 744.2,145 20,145 20,164 		"/>
		<rect id="XMLID_35_" x="-0.2" y="242.1" class="st2" width="808.4" height="57"/>
		<rect id="XMLID_57_" x="-0.2" y="284.1" class="st3" width="808.4" height="15"/>
		<polygon id="XMLID_37_" class="st0" points="194.8,0.4 484.5,0.4 608.1,144.8 95.7,144.8 		"/>
		<polygon id="XMLID_65_" class="st1" points="492.3,10 484.5,0 194.8,0 188.5,10 		"/>
		<polygon id="XMLID_41_" class="st4" points="208.9,23.1 470.1,23.1 575.9,144.8 129.1,144.8 		"/>
		<polygon id="XMLID_6_" class="st5" points="208.9,23 178.8,69 510,69 470.1,23 		"/>
		<circle id="XMLID_38_" class="st4" cx="623.5" cy="288.6" r="74.8"/>
		<circle id="XMLID_39_" class="st5" cx="623.5" cy="288.6" r="47.6"/>
		<circle id="XMLID_43_" class="st6" cx="623.5" cy="288.6" r="26.2"/>
		<circle id="XMLID_42_" class="st4" cx="170.2" cy="288.6" r="74.8"/>
		<circle id="XMLID_54_" class="st5" cx="170.2" cy="288.6" r="47.6"/>
		<circle id="XMLID_52_" class="st6" cx="170.2" cy="288.6" r="26.2"/>
		<polygon id="XMLID_50_" class="st6" points="757.6,175 724,175 724,214 775.1,214 		"/>
		<rect id="XMLID_40_" x="704.4" y="174.6" class="st7" width="19.6" height="39.2"/>
		<rect id="XMLID_53_" x="20" y="175" class="st6" width="33" height="39"/>
		<rect id="XMLID_49_" x="53.1" y="174.7" class="st7" width="19.6" height="39.2"/>
		<rect id="XMLID_51_" x="372.6" y="12.2" class="st0" width="22.6" height="132.5"/>
		<rect id="XMLID_56_" x="209.3" y="12.2" class="st0" width="22.6" height="132.5"/>
		<rect id="XMLID_55_" x="395.2" y="174.6" class="st2" width="52.3" height="14.4"/>
		<rect id="XMLID_58_" x="231.9" y="174.6" class="st2" width="52.3" height="14.4"/>
		<rect id="XMLID_59_" x="542.1" y="91.9" class="st1" width="11.8" height="44.7"/>
	</g>
</g>
</svg>
