<?xml version="1.0" encoding="UTF-8"?>
<svg width="19px" height="15px" viewBox="0 0 19 15" version="1.1" xmlns="http://www.w3.org/2000/svg" xmlns:xlink="http://www.w3.org/1999/xlink">
    <!-- Generator: Sketch 46.2 (44496) - http://www.bohemiancoding.com/sketch -->
    <title>RR-logo (3)</title>
    <desc>Created with Sketch.</desc>
    <defs>
        <filter x="-63.6%" y="-71.4%" width="236.4%" height="314.3%" filterUnits="objectBoundingBox" id="filter-1">
            <feOffset dx="0" dy="2" in="SourceAlpha" result="shadowOffsetOuter1"></feOffset>
            <feGaussianBlur stdDeviation="2" in="shadowOffsetOuter1" result="shadowBlurOuter1"></feGaussianBlur>
            <feColorMatrix values="0 0 0 0 0   0 0 0 0 0   0 0 0 0 0  0 0 0 0.5 0" type="matrix" in="shadowBlurOuter1" result="shadowMatrixOuter1"></feColorMatrix>
            <feMerge>
                <feMergeNode in="shadowMatrixOuter1"></feMergeNode>
                <feMergeNode in="SourceGraphic"></feMergeNode>
            </feMerge>
        </filter>
    </defs>
    <g id="Page-1" stroke="none" stroke-width="1" fill="none" fill-rule="evenodd">
        <g id="Mobile" transform="translate(-204.000000, -207.000000)" fill-rule="nonzero" fill="#FFFFFF">
            <g id="Body" transform="translate(-82.000000, 119.000000)">
                <g id="Hero">
                    <g id="Separator" transform="translate(243.000000, 90.000000)">
                        <g id="RR-logo-(3)" filter="url(#filter-1)" transform="translate(47.000000, 0.000000)">
                            <path d="M9.05679573,0 C9.19309902,0.0293392505 9.3301902,0.0526380671 9.46491773,0.0862919132 C10.3260709,0.321868836 10.8870417,1.03550296 10.9815873,2.00197239 C11.0254555,2.37524049 10.9906879,2.75455426 10.8799508,3.11082347 C10.6435867,3.83653846 10.1653433,4.26799803 9.48540262,4.44058185 L9.41685703,4.4561144 C9.4420692,4.50357495 9.46255409,4.54240631 9.48461474,4.58296351 C9.92004993,5.3463593 10.3552225,6.1097551 10.7901324,6.87315089 C10.8107349,6.9142334 10.8291496,6.95658723 10.845284,7 L9.49800871,7 C9.0820079,6.22452334 8.66626972,5.44789612 8.25079417,4.67011834 C8.2259494,4.61583151 8.17269928,4.5844275 8.1176424,4.5915927 C7.80249027,4.5915927 7.47945934,4.5915927 7.16036782,4.5915927 C7.04691305,4.5915927 7.04612517,4.5915927 7.04612517,4.71844181 C7.04612517,5.32478632 7.04612517,5.93141847 7.04612517,6.53833826 C7.04612517,6.69107495 7.04612517,6.84294872 7.05085245,6.9956854 L6.34176017,6.9956854 C6.31891164,6.71955128 6.28660855,6.44341716 6.27557823,6.16728304 C6.26604068,5.63362376 6.30111632,5.10012828 6.38036631,4.5734714 C6.41739668,4.28784517 6.48830591,4.00739645 6.54424541,3.72522189 C6.55369998,3.6760355 6.56788182,3.62857495 6.63406377,3.6579142 C6.64318678,3.71662002 6.65689368,3.77435988 6.67503354,3.83049803 C6.68936264,3.94285979 6.69174219,4.05666285 6.68212447,4.16962525 L6.72467,4.13856016 L6.65612442,4.36378205 L6.7128518,4.30682939 L6.73176093,4.37241124 C6.74751853,4.3344428 6.75776098,4.29992604 6.77351858,4.26972387 C6.84064267,4.1367979 6.86479705,3.98293392 6.84206417,3.83308679 C6.82410913,3.74760329 6.82627799,3.65852499 6.84836721,3.57421105 L6.99806447,3.78217456 L6.99176143,3.67948718 L7.0090948,3.67258383 L7.1769133,3.93663708 L7.20212547,3.87191815 L7.32424692,4.15668146 L7.33685301,4.15150394 L7.32424692,4.02379191 L7.34709545,4.0186144 L7.44873201,4.32581361 L7.4613381,4.32581361 L7.47000478,4.17307692 L7.54327765,4.31977318 C7.53108958,4.14311977 7.48203118,3.9718898 7.39988343,3.81928008 C7.34236817,3.7209073 7.29036807,3.60182446 7.17770118,3.54918639 C7.16036782,3.54142012 7.15248901,3.50776627 7.14067081,3.48533037 C7.1608259,3.47531756 7.1816303,3.46695314 7.20291335,3.46030572 C7.22124709,3.45820263 7.23973124,3.45820263 7.25806498,3.46030572 C7.7095204,3.46030572 8.1617637,3.46030572 8.61321911,3.46030572 C8.7268375,3.46103217 8.84026647,3.45005352 8.95200765,3.42751479 C9.43201137,3.33486276 9.78266759,2.87923104 9.78479714,2.3454142 C9.80134263,1.7724359 9.51770571,1.34097633 9.02449264,1.195143 C8.92913666,1.16475222 8.83066338,1.14764666 8.73140116,1.14423077 C8.19485467,1.13905325 7.65909606,1.14423077 7.12254956,1.13905325 C7.06582218,1.13905325 7.04376153,1.16062623 7.04376153,1.22534517 C7.04376153,1.32199211 7.04376153,1.41863905 7.04376153,1.515286 C7.04376153,1.8535503 7.04376153,2.19095168 7.04376153,2.52921598 C7.04376153,2.60428994 7.02800393,2.68281558 6.9649735,2.69144477 C6.91970087,2.70048151 6.87950375,2.72869507 6.8530945,2.76997041 C6.81470978,2.81758836 6.77867843,2.86742123 6.74515489,2.91925542 L6.68133659,2.66469428 C6.67294816,2.58051093 6.65079718,2.49866772 6.61594252,2.42307692 C6.53410056,2.32006088 6.44420356,2.2250668 6.34727533,2.13917653 C6.28266915,2.07532051 6.21412356,2.01664201 6.14715374,1.95537475 L6.17236591,1.92085799 L6.57339698,2.25221893 L6.58206367,2.24272682 L6.41582092,2.02095661 L6.42685125,2.00801282 L6.52297264,2.05115878 C6.49965149,2.01085391 6.4732972,1.97275301 6.44418461,1.93725345 C6.41818456,1.90101085 6.4047906,1.85096154 6.37406327,1.82334813 C6.29921464,1.75517751 6.20309324,1.73101578 6.12430521,1.65766765 C6.04551718,1.58431953 5.92812301,1.57137574 5.82727433,1.53254438 C5.7484863,1.50234221 5.66969827,1.52477811 5.58460719,1.49975345 C5.49951612,1.4747288 5.37424315,1.52650394 5.26945507,1.547214 C5.24624406,1.55294374 5.2233569,1.56014689 5.20090948,1.56878698 L5.19145492,1.54376233 L5.50660704,1.39188856 L5.50660704,1.37635602 L5.35297038,1.37635602 L5.34903098,1.35219428 L5.75557722,1.19686884 L5.75557722,1.18478797 L5.63897093,1.17443294 L5.63897093,1.15199704 L6.08333543,1.06570513 L6.08333543,1.04758383 L5.87691079,1.02773669 C6.04236565,0.946622288 6.21727508,0.958703156 6.38903299,0.924186391 L6.12272945,0.888806706 C6.24563877,0.802514793 6.38745723,0.826676529 6.53794237,0.792159763 L6.12666885,0.792159763 C6.10145668,0.792159763 6.06206266,0.810281065 6.0526081,0.798200197 C5.9966686,0.727440828 5.94072909,0.784393491 5.88715323,0.798200197 C5.83357737,0.812006903 5.79024395,0.856878698 5.75400146,0.84479783 C5.66339522,0.813732742 5.60903148,0.873274162 5.5444253,0.913831361 C5.52866769,0.923323471 5.5081828,0.948348126 5.49951612,0.943170611 C5.42860689,0.907790927 5.38054619,0.963017751 5.34903098,1.00530079 C5.28127327,1.0959073 5.15915182,1.11057692 5.11266688,1.22361933 C5.11266688,1.23224852 5.08666683,1.23224852 5.06145466,1.23828895 L5.07878803,1.02083333 L5,1.04499507 L5.11896993,0.769723866 C5.10213701,0.773933643 5.08500172,0.77653219 5.06775771,0.777490138 C5.05752244,0.774734431 5.04770399,0.770374876 5.03860614,0.764546351 L5.19145492,0.517751479 L5.06303043,0.552268245 L5.26945507,0.275271203 L5.13866694,0.275271203 L5.35375826,0 L9.05679573,0 Z" id="Shape"></path>
                            <path d="M5,0 C4.97150687,0.0232930737 4.94219965,0.045723441 4.91859106,0.0707419275 C4.84939346,0.131994084 4.78182404,0.194971654 4.71262644,0.256223811 C4.68087696,0.283830417 4.64587111,0.306260784 4.61493571,0.334730096 C4.58400032,0.363199408 4.59865393,0.436529455 4.52782815,0.441705694 C4.51480272,0.441705694 4.50991818,0.519349273 4.49689275,0.559896475 C4.48793777,0.586640375 4.52131543,0.654794183 4.44641921,0.626324871 C4.43498911,0.65362205 4.42810342,0.682809675 4.42606697,0.712595514 C4.43267142,0.786963364 4.41911536,0.861784338 4.38699068,0.928272122 C4.36555647,1.00023186 4.35243528,1.07468038 4.34791439,1.14998768 C4.27464635,1.05250185 4.21766009,0.966231205 4.14927658,0.891175746 C4.1248539,0.864431846 4.10368757,0.767808726 4.03367589,0.846315011 C4.03367589,0.846315011 4.00762502,0.823021937 3.99459959,0.810081341 L3.83178171,0.647892531 L3.80735903,0.72812423 C3.78025165,0.703140453 3.75140541,0.680357953 3.72106556,0.659970421 C3.68198927,0.637540054 3.65349614,0.573699778 3.58836898,0.634951935 C3.56883084,0.653931476 3.49800506,0.612521568 3.44997379,0.598718265 C3.42066657,0.5900912 3.39054526,0.579738723 3.41659612,0.632363816 C3.39584129,0.642090702 3.37392955,0.648766537 3.35146897,0.652206064 C3.23642526,0.655143069 3.1233634,0.684581362 3.02013459,0.738476707 L3.02013459,0.766946019 L3.2260992,0.766946019 L3.24319508,0.80059157 L3.14061982,0.866157259 L3.15445934,0.889450333 L3.51347276,0.915331526 L3.39054526,1.00160217 L3.71618102,1.03179689 C3.68692725,1.10596737 3.61487308,1.15065569 3.53952362,1.14136061 C3.17155521,1.13618437 2.80684316,1.13273355 2.43480431,1.14136061 C2.28328332,1.14341022 2.1327005,1.16691135 1.98705514,1.21123983 C1.46278157,1.38378112 1.19983069,1.85826966 1.25437468,2.40867636 C1.31298912,3.01257087 1.721662,3.41718018 2.29803729,3.44392408 C2.53249504,3.45600197 2.76858096,3.44910032 3.0038528,3.44996303 L3.94168378,3.44996303 C4.10450166,3.44996303 4.08496352,3.45686468 4.08496352,3.30330293 C4.08496352,2.95822036 4.08984805,2.61917673 4.08496352,2.27754498 C4.0810722,2.17599475 4.13495262,2.08185079 4.22173054,2.0385753 L4.1859106,2.14813902 L4.25673638,2.1317476 C4.19103361,2.30580061 4.17270109,2.49588958 4.20382057,2.68042889 C4.23894199,2.86300779 4.30693714,3.03670327 4.40408656,3.1920138 L4.36419618,3.00998275 L4.38047797,3.00135568 L4.46188691,3.12127188 L4.47409825,3.11609564 L4.36989481,2.78999261 L4.38861886,2.77791472 L4.462701,2.89438008 L4.47409825,2.89006655 L4.38861886,2.55533646 L4.45211784,2.61313779 L4.42606697,2.29479911 L4.44641921,2.29479911 L4.48630959,2.36209021 C4.49200822,2.35346315 4.49852093,2.34742421 4.49770684,2.34224797 C4.49770684,2.29393641 4.49038004,2.24562485 4.49282231,2.19731329 C4.49282231,2.17574562 4.51154636,2.15590338 4.52212952,2.13519842 C4.54573812,2.1584915 4.58644259,2.11104264 4.60353846,2.1852354 C4.74240723,2.67459844 4.83646202,3.17700162 4.88439931,3.68548188 C4.92673195,4.14530441 4.97476323,4.60685235 4.98697457,5.06581218 C4.99755773,5.45057925 4.96662233,5.83707173 4.94301374,6.2218388 C4.92673195,6.48065073 4.88928384,6.73946266 4.8616048,6.99827459 L4.08740579,6.99827459 C4.08740579,6.94996303 4.08170716,6.90251417 4.08170716,6.85420261 C4.08170716,6.13930655 4.08170716,5.42441048 4.08170716,4.70951442 C4.08170716,4.59649988 4.08170716,4.59477446 3.97587554,4.59477446 C3.64209888,4.59477446 3.30913632,4.59477446 2.97535967,4.59477446 C2.9108918,4.58983442 2.85050841,4.62857398 2.82475313,4.69139758 C2.41933661,5.42584833 2.01229191,6.15943637 1.60361903,6.8921617 C1.58685897,6.92710178 1.57217672,6.96311814 1.55965821,7 L0.150469459,7 C0.258743349,6.81106729 0.364574971,6.62127188 0.476105218,6.43406458 C0.839189089,5.81636677 1.20281569,5.1992441 1.56698501,4.58269657 C1.58896542,4.5456002 1.60850357,4.50764111 1.63536852,4.46019226 L1.49941559,4.42309588 C0.672277746,4.22043067 0.0684385675,3.46692631 0.0137024403,2.56913976 C-0.028580406,2.15111271 0.0273528107,1.7284925 0.17652032,1.33892038 C0.459009341,0.642716293 0.968629304,0.239832388 1.65409258,0.0707419275 C1.767251,0.0431353217 1.8828517,0.0232930737 1.9976383,1.25471347e-15 L5,0 Z" id="Shape"></path>
                            <path d="M5.15945074,6.99808291 C5.15476366,6.77570093 5.15398248,6.55236041 5.14538951,6.3271028 C5.11362154,5.48869718 5.08003082,4.65029156 5.04461734,3.81188593 C5.04095154,3.68316122 5.02919898,3.55497525 5.00946426,3.42846873 C4.97886582,3.31846587 5.02481458,3.1984968 5.11336115,3.15720105 C5.13718079,3.13955321 5.1638293,3.12843557 5.19147911,3.12461059 L5.11336115,3.24346993 L5.1227353,3.25497244 L5.37349395,3.05559549 L5.36255744,3.13419602 L5.63284558,3 L5.64143856,3.01917086 L5.5711324,3.11502516 L5.80548628,3.01917086 L5.77423909,3.10352265 L6,3.10352265 C5.6359703,4.37550923 5.6359703,5.69158879 5.62112789,7 L5.15945074,6.99808291 Z" id="Shape"></path>
                            <path d="M5.50786761,4 C5.41750219,3.36143547 5.24697231,2.73572632 5,2.13652944 C5.0933261,2.13652944 5.17145958,2.12402293 5.24850787,2.12506514 C5.32555616,2.12610735 5.39934889,2.13757165 5.49701574,2.14590933 L5.38849702,2.05419489 L5.39392295,2.02918187 C5.46120456,2.04585722 5.52848616,2.06044815 5.59468258,2.08025013 C5.660879,2.10005211 5.73467173,2.12819177 5.80412371,2.15320479 L5.82691264,2.12402293 L5.68258275,2.03126628 L5.70428649,2 C5.90613131,2.03439291 6.07976126,2.1427827 6.29028757,2.23762376 L6.20238741,2.11047421 C6.45119163,2.20498079 6.67053914,2.35929767 6.8393923,2.55862428 C6.82471836,2.56598128 6.80948155,2.57225272 6.79381443,2.57738405 C6.77249945,2.5788429 6.75110337,2.5788429 6.72978839,2.57738405 L6.91427021,2.79937467 L6.81877374,2.80667014 C6.8509481,2.84029386 6.87898575,2.87736254 6.90233315,2.91714435 C6.91427021,2.94424179 7.03038524,2.98593017 6.90233315,3.01511204 C6.90839606,3.03814279 6.91600836,3.06077151 6.92512208,3.08285565 C6.9489962,3.13079729 6.97504069,3.17769672 7,3.22563835 C6.93705914,3.24439812 6.93705914,3.24439812 6.92946283,3.43408025 C6.53553988,3.03699844 6.04937602,2.97550808 5.52957135,3.03595623 C5.57731959,3.03595623 5.62615301,3.03595623 5.67390125,3.04637832 C5.73062144,3.05208929 5.7852082,3.07027752 5.83342377,3.09953101 L5.57731959,3.14851485 L6.07325014,3.19228765 L6.07325014,3.2193851 L5.93109061,3.25690464 L5.93109061,3.27357999 L6.32609875,3.34757686 L6.32609875,3.36112559 L6.21758003,3.3850964 L6.62452523,3.51954143 L6.62452523,3.54455446 L6.48887683,3.56227202 L6.78404775,3.69463262 L6.77645144,3.70818134 C6.69831796,3.69671704 6.62126967,3.68212611 6.54313619,3.67274622 C6.31439512,3.65388367 6.08452724,3.69343426 5.87683125,3.78738927 C5.74887851,3.84999119 5.62559547,3.92103152 5.50786761,4 L5.50786761,4 Z" id="Shape"></path>
                        </g>
                    </g>
                </g>
            </g>
        </g>
    </g>
</svg>