<svg xmlns="http://www.w3.org/2000/svg" viewBox="0 0 549.75 81.13"><defs><style>.cls-1{fill:#fff;}</style></defs><title>Asset 1</title><g id="Layer_2" data-name="Layer 2"><g id="Layer_1-2" data-name="Layer 1"><path class="cls-1" d="M315.86,0c1.73.34,3.47.61,5.18,1,10.93,2.73,18.05,11,19.25,22.2A28.56,28.56,0,0,1,339,36.05c-3,8.41-9.07,13.41-17.7,15.41l-.87.18c.32.55.58,1,.86,1.47q8.29,13.27,16.57,26.54a14.08,14.08,0,0,1,.7,1.47H321.46q-7.92-13.48-15.83-27a1.67,1.67,0,0,0-1.69-.91c-4,0-8.1,0-12.15,0-1.44,0-1.45,0-1.45,1.47q0,10.54,0,21.09c0,1.77,0,3.53.06,5.3h-9c-.29-3.2-.7-6.4-.84-9.6A101.38,101.38,0,0,1,281.89,53c.47-3.31,1.37-6.56,2.08-9.83.12-.57.3-1.12,1.14-.78a12.06,12.06,0,0,0,.52,2,17,17,0,0,1,.09,3.93l.54-.36-.87,2.61.72-.66.24.76c.2-.44.33-.84.53-1.19a7.81,7.81,0,0,0,.87-5.06,6,6,0,0,1,.08-3l1.9,2.41-.08-1.19.22-.08L292,45.62l.32-.75,1.55,3.3.16-.06-.16-1.48.29-.06,1.29,3.56.16,0,.11-1.77.93,1.7a13.41,13.41,0,0,0-1.82-5.8c-.73-1.14-1.39-2.52-2.82-3.13-.22-.09-.32-.48-.47-.74a5.69,5.69,0,0,1,.79-.29,3.36,3.36,0,0,1,.7,0c5.73,0,11.47,0,17.2,0a23,23,0,0,0,4.3-.38A12.79,12.79,0,0,0,325.1,27.18c.21-6.64-3.39-11.64-9.65-13.33a15,15,0,0,0-3.72-.59c-6.81-.06-13.61,0-20.42-.06-.72,0-1,.25-1,1,0,1.12,0,2.24,0,3.36,0,3.92,0,7.83,0,11.75,0,.87-.2,1.78-1,1.88a2.22,2.22,0,0,0-1.42.91,20.64,20.64,0,0,0-1.37,1.73l-.81-2.95a8.18,8.18,0,0,0-.83-2.8,27.19,27.19,0,0,0-3.41-3.29c-.82-.74-1.69-1.42-2.54-2.13l.32-.4,5.09,3.84.11-.11-2.11-2.57.14-.15,1.22.5a9.93,9.93,0,0,0-1-1.32c-.33-.42-.5-1-.89-1.32-.95-.79-2.17-1.07-3.17-1.92s-2.49-1-3.77-1.45c-1-.35-2-.09-3.08-.38s-2.67.31-4,.55a7.79,7.79,0,0,0-.87.25l-.12-.29,4-1.76,0-.18h-1.95l-.05-.28,5.16-1.8,0-.14-1.48-.12,0-.26,5.64-1v-.21l-2.62-.23c2.1-.94,4.32-.8,6.5-1.2l-3.38-.41c1.56-1,3.36-.72,5.27-1.12h-5.22c-.32,0-.82.21-.94.07-.71-.82-1.42-.16-2.1,0s-1.23.68-1.69.54c-1.15-.36-1.84.33-2.66.8-.2.11-.46.4-.57.34-.9-.41-1.51.23-1.91.72-.86,1.05-2.41,1.22-3,2.53,0,.1-.33.1-.65.17l.22-2.52-1,.28,1.51-3.19a3.78,3.78,0,0,1-.65.09,1.39,1.39,0,0,1-.37-.15L266.8,6l-1.63.4,2.62-3.21h-1.66L268.86,0Z"/><path class="cls-1" d="M268,0c-.35.27-.71.53-1,.82-.85.71-1.68,1.44-2.53,2.15-.39.32-.82.58-1.2.91s-.2,1.18-1.07,1.24c-.16,0-.22.9-.38,1.37-.11.31.3,1.1-.62.77a3,3,0,0,0-.25,1,4.55,4.55,0,0,1-.48,2.5,10.82,10.82,0,0,0-.48,2.57c-.9-1.13-1.6-2.13-2.44-3-.3-.31-.56-1.43-1.42-.52,0,0-.32-.27-.48-.42l-2-1.88-.3.93a8.78,8.78,0,0,0-1.06-.79c-.48-.26-.83-1-1.63-.29-.24.22-1.11-.26-1.7-.42-.36-.1-.73-.22-.41.39a3.06,3.06,0,0,1-.8.23,9.74,9.74,0,0,0-4.07,1l0,.33h2.53l.21.39-1.26.76.17.27,4.41.3-1.51,1,4,.35a2.09,2.09,0,0,1-2.17,1.27c-4.52-.06-9-.1-13.57,0a20.89,20.89,0,0,0-5.5.81c-6.44,2-9.67,7.5-9,13.88.72,7,5.74,11.69,12.82,12,2.88.14,5.78.06,8.67.07H255c2,0,1.76.08,1.76-1.7,0-4,.06-7.93,0-11.89a2.93,2.93,0,0,1,1.68-2.77L258,24.9l.87-.19a11.62,11.62,0,0,0-.65,6.36A16.81,16.81,0,0,0,260.68,37l-.49-2.11.2-.1,1,1.39.15-.06-1.28-3.78.23-.14.91,1.35.14-.05-1.05-3.88.78.67-.32-3.69.25,0,.49.78c.07-.1.15-.17.14-.23,0-.56-.09-1.12-.06-1.68,0-.25.23-.48.36-.72.29.27.79-.28,1,.58a92.22,92.22,0,0,1,3.45,17.39c.52,5.33,1.11,10.68,1.26,16,.13,4.46-.25,8.94-.54,13.4-.2,3-.66,6-1,9h-9.51c0-.56-.07-1.11-.07-1.67q0-12.43,0-24.86c0-1.31,0-1.33-1.3-1.33-4.1,0-8.19,0-12.29,0a1.87,1.87,0,0,0-1.85,1.12q-7.47,12.77-15,25.51a10.9,10.9,0,0,0-.54,1.25H208.43c1.33-2.19,2.63-4.39,4-6.56q6.69-10.74,13.4-21.46c.27-.43.51-.87.84-1.42L225,51.27a23.62,23.62,0,0,1-18.25-21.49,29.55,29.55,0,0,1,2-14.26c3.47-8.07,9.73-12.74,18.15-14.7,1.39-.32,2.81-.55,4.22-.82Z"/><path class="cls-1" d="M0,23.78c1.2-.06,2.4-.17,3.61-.18,3.17,0,6.34-.07,9.5,0a44.56,44.56,0,0,1,6.54.43c7,1.2,8.79,7.61,6.73,12.59a16.32,16.32,0,0,1-4.26,5.65c-.41.38-.83.74-1.3,1.17.26.36.47.7.73,1,2.88,3.54,5.71,7.13,8.68,10.6a23.29,23.29,0,0,0,3.94,3.52A6.85,6.85,0,0,0,39,59.74a1.65,1.65,0,0,0,1.68-1.55A19.2,19.2,0,0,0,40.85,56q0-11.47,0-22.93c0-2.2-.49-2.66-2.68-2.92-.52-.06-1-.18-1.7-.3.53-.87,1.18-.7,1.73-.7,4.66,0,9.32.12,14,.11,1.81,0,3.62-.19,5.42-.35.55,0,.82.05.76.63-.16,1.62-.31,3.24-.51,4.86a4,4,0,0,1-.44,1l-.36-.06c-.09-.38-.19-.76-.26-1.15C56.57,32.78,56,32.1,54.7,32c-2.37-.2-4.75-.23-7.12-.34-.56,0-.74.28-.74.77,0,3.17,0,6.34,0,9.51a1.06,1.06,0,0,0,.74.72c2.61,0,5.22-.05,7.82-.22a6.75,6.75,0,0,0,2.07-1,3.42,3.42,0,0,1,.18.88c-.14,1.81-.29,3.62-.49,5.43,0,.31-.33.58-.5.88a3.15,3.15,0,0,1-.46-.89c-.29-1.89-.64-2.33-2.55-2.48s-4-.14-6-.22c-.6,0-.84.24-.84.82,0,3.12-.06,6.25,0,9.37.07,1.94.92,2.78,2.88,2.93a36.31,36.31,0,0,0,5.29,0c2-.14,2.74-.87,3.32-2.82a5.08,5.08,0,0,1,.72-1.16,4.14,4.14,0,0,1,.33,1.27A39.1,39.1,0,0,1,59,59.35c-.21,1.21-.55,1.49-1.79,1.51-2.14,0-4.29-.06-6.43-.06-6.11,0-12.21-.09-18.32,0a9,9,0,0,1-7.58-3.47c-2.34-3-4.67-5.94-6.74-9.09-1.31-2-2.76-3.15-5.2-2.77a2.35,2.35,0,0,1-.42,0c-1.59,0-1.62,0-1.59,1.57.07,3.35.1,6.71.28,10.06.11,2,.59,2.34,2.58,2.58.6.07,1.21.12,1.8.22a.51.51,0,0,1,.33.37.53.53,0,0,1-.29.41,2.5,2.5,0,0,1-.82.11H2.07a1.08,1.08,0,0,1-.42,0c-.27-.13-.53-.3-.79-.45.24-.16.47-.43.73-.48,2.88-.51,3-.58,3.18-3.51S5,50.16,5,47.08C5,41.3,5,35.52,5,29.74A22.82,22.82,0,0,0,4.82,27c-.19-1.51-.82-2.08-2.35-2.29L0,24.34ZM10.91,34.32c0,2.33,0,4.66,0,7,0,.95.36,1.38,1.25,1.47s1.94.25,2.92.26c2.86,0,4.51-1.11,5.52-3.8a12.8,12.8,0,0,0,.66-5.51c-.37-5.18-3.8-8.11-9-7.69-1.25.1-1.35.19-1.35,1.42C10.9,29.76,10.91,32,10.91,34.32Z"/><path class="cls-1" d="M271.94,81.13c-.06-2.32-.07-4.65-.18-7q-.61-13.12-1.29-26.24a26.13,26.13,0,0,0-.45-4,2.25,2.25,0,0,1,1.33-2.83,2.47,2.47,0,0,1,1-.34l-1,1.24.12.12L274.68,40l-.14.82L278,39.42l.11.2-.9,1,3-1-.4.88h2.89c-4.66,13.27-4.66,27-4.85,40.65Z"/><path class="cls-1" d="M549.75,56.79c-.15.67-.31,1.34-.44,2-.35,1.77-.52,1.94-2.27,1.94-2.19,0-4.38,0-6.57,0-3.73,0-7.45,0-11.18,0a3.69,3.69,0,0,1-1.56-.42c.09-.88.88-.55,1.41-.63,1.24-.18,1.68-.54,1.81-1.89s.24-2.88.24-4.32c0-6.48,0-13,0-19.44,0-.37,0-.75,0-1.12-.08-2.08-.69-2.69-2.79-2.87-.51,0-1-.18-1.51-.27v-.47a12.78,12.78,0,0,1,1.65-.2c5.22,0,10.44.07,15.66.06a30.41,30.41,0,0,0,3.61-.3c.6-.07.89,0,.82.71-.18,1.57-.32,3.15-.51,4.72a5,5,0,0,1-.38,1.06l-.32,0a6.14,6.14,0,0,1-.27-.83c-.33-1.88-.78-2.45-2.69-2.62-2.18-.19-4.37-.16-6.56-.24-.63,0-.78.32-.78.87,0,3.08,0,6.15,0,9.23,0,.69.3.88.93.86,2.24,0,4.48,0,6.71-.1a9.43,9.43,0,0,0,2.32-.78,1.5,1.5,0,0,1,.72-.15c.1,0,.2.4.18.61-.16,1.9-.32,3.81-.53,5.7,0,.25-.35.46-.53.69a3.54,3.54,0,0,1-.42-.64,2.26,2.26,0,0,1-.09-.69,1.81,1.81,0,0,0-1.7-1.9c-2.32-.19-4.65-.26-7-.32-.2,0-.59.46-.59.71,0,3.31,0,6.62,0,9.93a2.29,2.29,0,0,0,1.93,2.28,16.23,16.23,0,0,0,7.34,0c1.41-.34,1.92-1.49,2.18-2.8.11-.54.13-1.38,1.1-.76Z"/><path class="cls-1" d="M409,35.24c-.09-.48-.18-1-.28-1.43a2.1,2.1,0,0,0-1.95-1.9c-2.41-.16-4.83-.24-7.25-.34-.87,0-.78.62-.78,1.17,0,2.47,0,4.94,0,7.41,0,2.79-.29,2.32,2.37,2.37.93,0,1.87,0,2.8,0,1.88,0,3.83.28,5.53-1.34a6.22,6.22,0,0,1,.16,1.13c-.14,1.77-.28,3.53-.47,5.29a3,3,0,0,1-.46.92,3.18,3.18,0,0,1-.52-1c-.25-1.71-.75-2.3-2.48-2.43-2-.14-4-.15-6-.22-.64,0-.94.23-.93.89,0,3.08,0,6.16.07,9.23.07,2,.77,2.8,2.67,3a39,39,0,0,0,6,0,2.9,2.9,0,0,0,2.76-2.54,2,2,0,0,1,.14-.54c.16-.3.37-.57.56-.85.15.35.46.71.43,1-.1,1.39-.24,2.79-.47,4.16-.2,1.19-.58,1.48-1.81,1.47-3.08,0-6.15-.11-9.23-.12-4.8,0-9.6-.09-14.4.1a10.61,10.61,0,0,1-9.62-4.6c-2.25-3.09-4.54-6.15-6.73-9.28a2.91,2.91,0,0,0-2.89-1.48,19.83,19.83,0,0,1-2.52,0c-.55,0-.9.13-.88.76.11,3.77.16,7.55.34,11.31.07,1.42.74,1.94,2.15,2.11.65.08,1.31.06,1.95.16.21,0,.39.3.58.46-.2.17-.37.41-.59.48a3.39,3.39,0,0,1-1,.06c-4,0-8,0-12,0a8.45,8.45,0,0,1-1.5-.28l0-.46a12.88,12.88,0,0,1,1.47-.32c1.69-.17,2.13-.49,2.36-2.17a29.68,29.68,0,0,0,.31-4q0-12.24,0-24.48a15.18,15.18,0,0,0-.16-2.23,2.09,2.09,0,0,0-2.06-2.08c-.69-.12-1.39-.12-2.08-.23-.19,0-.34-.25-.52-.38.18-.17.33-.43.54-.49a3.42,3.42,0,0,1,1,0c4.57,0,9.14-.07,13.7,0a24.26,24.26,0,0,1,5.52.73c5.38,1.4,7.29,6.65,5.82,11.38a15.47,15.47,0,0,1-4.8,6.75c-1.16,1.05-1.32.79-.21,2.15,3.07,3.75,6.11,7.53,9.26,11.21a17.59,17.59,0,0,0,3.41,2.86,7,7,0,0,0,4.56,1,1.64,1.64,0,0,0,1.72-1.5,12.26,12.26,0,0,0,.2-1.8c0-7.83.07-15.66.06-23.5,0-2.09-.64-2.65-2.77-2.85-.5,0-1.17.25-1.41-.52a6,6,0,0,1,1.5-.4c5.13,0,10.26.06,15.38.05a38,38,0,0,0,3.89-.28c.61-.06,1-.08.9.74-.19,1.48-.28,3-.47,4.45a6.37,6.37,0,0,1-.45,1.29Zm-46.19-1.09c0,2.38,0,4.75,0,7.13,0,.79.28,1.25,1.07,1.34,1.15.12,2.31.26,3.47.31,2.53.09,4.08-1.29,5-3.5a12,12,0,0,0,.66-6.86c-.82-4.75-4.28-7.2-9.06-6.6-.89.11-1.18.47-1.16,1.34C362.88,29.58,362.85,31.87,362.85,34.15Z"/><path class="cls-1" d="M490,60.27c1.2-1.08,1.2-1.08.68-2.39-.89-2.25-1.8-4.49-2.66-6.76a1.3,1.3,0,0,0-1.43-1c-2.89,0-5.78,0-8.66,0-.55,0-1,.06-1.22.67-.81,2.08-1.66,4.15-2.49,6.22a3.93,3.93,0,0,0-.18.68c-.28,1.38,0,1.8,1.4,1.93.5.05,1.36-.25,1.36.52s-.86.5-1.36.51c-2.7,0-5.4,0-8.1,0a3.76,3.76,0,0,1-1,0,3,3,0,0,1-.75-.47c.23-.18.47-.53.68-.51,2.67.14,3.7-1.62,4.6-3.72,3.66-8.61,7.37-17.2,11.07-25.79a9.65,9.65,0,0,1,.73-1.5c.55-.85,1.19-.84,1.72,0a15.66,15.66,0,0,1,1,2q5.06,11.88,10.13,23.76a28.25,28.25,0,0,0,1.74,3.34,3.36,3.36,0,0,0,3.1,1.81,2.55,2.55,0,0,1,.83.11c.15,0,.38.27.36.35a.82.82,0,0,1-.39.48,2.08,2.08,0,0,1-.82.12q-4.54-.06-9.08-.15A8.24,8.24,0,0,1,490,60.27ZM478,47.65h8.61l-4.13-10.76-.27.05Z"/><path class="cls-1" d="M463.24,35.24c-.08-.43-.15-.86-.23-1.29a2.13,2.13,0,0,0-2-2c-2.41-.17-4.83-.23-7.25-.34-.64,0-.77.35-.77.89q0,4.62,0,9.23c0,.59.22.85.82.84,2.42,0,4.85,0,7.27-.14a10.4,10.4,0,0,0,2.67-1,5,5,0,0,1,.11,1c-.15,1.76-.31,3.53-.52,5.29,0,.29-.35.54-.53.81a3,3,0,0,1-.39-.8c-.32-2-.82-2.51-2.9-2.62-1.82-.09-3.64-.1-5.45-.18-.75,0-1.09.17-1.08,1,0,2.94,0,5.87,0,8.81,0,2.19.81,3.15,3,3.34a35.48,35.48,0,0,0,5.58,0,3,3,0,0,0,2.95-2.7,1.26,1.26,0,0,1,.12-.4c.17-.3.37-.58.56-.87.15.35.45.71.42,1a40.26,40.26,0,0,1-.46,4.16c-.21,1.22-.56,1.47-1.81,1.47-2.94,0-5.87-.09-8.81-.1s-5.68,0-8.53,0a3.89,3.89,0,0,1-.84,0c-.54-.12-1.07-.31-1.6-.48.26-.83,1-.53,1.53-.57a1.65,1.65,0,0,0,1.71-1.51,19.44,19.44,0,0,0,.25-2.5q0-11.4,0-22.8c0-2-.63-2.64-2.64-2.83a1,1,0,0,1-.28,0l-1.26-.53a5.12,5.12,0,0,1,1.36-.39c5.36,0,10.72.05,16.08.06a21.76,21.76,0,0,0,3.19-.27c.77-.11,1.14-.07,1,.88-.21,1.33-.24,2.69-.4,4a11,11,0,0,1-.39,1.51Z"/><path class="cls-1" d="M502.65,56c.06-1,.08-2.05.2-3.07,0-.31.35-.58.54-.87.18.27.46.53.51.82.8,4.7,4.62,7.1,9.24,5.78A5.16,5.16,0,0,0,515.54,50a25.68,25.68,0,0,0-3.59-2.63c-1.93-1.37-4-2.61-5.78-4.13a7.77,7.77,0,0,1-2.64-6,7.48,7.48,0,0,1,3.26-6.6,9.88,9.88,0,0,1,5.56-2.08,59.35,59.35,0,0,1,7.51.38c1.35.13,1.37.32,1.33,1.62s-.09,2.7-.15,4.05a3,3,0,0,1-.15,1,.76.76,0,0,1-.51.35c-.09,0-.28-.21-.34-.36a4.15,4.15,0,0,1-.14-.68,5,5,0,0,0-4.35-4.13,7.45,7.45,0,0,0-5.26.87,4,4,0,0,0-1,6.16,10.85,10.85,0,0,0,2.24,1.87c1,.67,2.12,1.17,3.13,1.84a35.65,35.65,0,0,1,4.29,3.09,8.93,8.93,0,0,1,2.72,9.67,9.13,9.13,0,0,1-7.33,6.55,21,21,0,0,1-9.56-.28c-2.1-.53-2.22-.77-2.16-2.89,0-.56,0-1.12.07-1.68Z"/><path class="cls-1" d="M427.33,60.64h-8.1a11.93,11.93,0,0,1-1.67,0,3.32,3.32,0,0,1-1-.52c.29-.17.58-.34.88-.49.08,0,.18,0,.28,0,1.63-.17,2-.52,2.17-2.14.14-1.9.23-3.81.24-5.72,0-6,0-12,0-18,0-.33,0-.65,0-1-.09-1.93-.68-2.53-2.6-2.79a4,4,0,0,1-1.3-.43c.16-.79.86-.5,1.35-.5q5.59,0,11.18,0a4.77,4.77,0,0,1,1.33.42,5.17,5.17,0,0,1-1.29.49c-2.2.21-2.67.61-2.68,2.87,0,7,0,14.07,0,21.11,0,3.3.51,3.8,3.79,4a47.36,47.36,0,0,0,5.3,0,3.43,3.43,0,0,0,3.35-2.85,4.4,4.4,0,0,1,.19-.81c.09-.17.32-.27.49-.4.13.17.32.33.37.52a2.45,2.45,0,0,1,0,.83c-.13,1.2-.22,2.41-.42,3.61-.26,1.58-.62,1.88-2.23,1.89-3.21,0-6.43,0-9.64,0Z"/><path class="cls-1" d="M108.46,61.51a55.81,55.81,0,0,1-5.76-1c-7.42-2-12-8.37-11.8-16.18a16,16,0,0,1,12.72-15.23,24,24,0,0,1,11.9.26c7.82,2.19,11.72,8.41,11.08,16.13C125.78,55.22,118.68,61.32,108.46,61.51Zm11.77-15.69a42.8,42.8,0,0,0-.55-4.4c-1.13-5-3.77-8.71-8.9-10.14C106.3,30,100,31.13,98.11,38a19.68,19.68,0,0,0,.66,13,12.08,12.08,0,0,0,7.06,7.14c6.69,2.52,12.52-.71,13.87-7.71C120,48.93,120,47.39,120.23,45.81Z"/><path class="cls-1" d="M149.08,46c3.14,3.64,6.13,7.15,9.19,10.6A8.43,8.43,0,0,0,164,59.82c.24,0,.46.34.68.52-.22.14-.44.4-.66.39-2.42,0-4.85,0-7.25-.23a6.73,6.73,0,0,1-4.51-2.84c-2-2.55-4.05-5.12-5.87-7.82a3.94,3.94,0,0,0-3.84-2.08c-2.75.13-2.34-.32-2.33,2.39,0,2.42.1,4.85.25,7.26.11,1.74.48,2,2.2,2.27.46.06.94,0,1.39.14.22.05.4.3.59.46a3.86,3.86,0,0,1-.63.44,1.44,1.44,0,0,1-.55,0H132.12a1.3,1.3,0,0,1-.55,0,3.19,3.19,0,0,1-.57-.48l.5-.41s.09,0,.14,0c2.59-.54,2.68-.57,2.82-3.19.13-2.42.11-4.85.11-7.27q0-8,0-16.09c0-2.44-.46-2.88-2.89-3.18a5.63,5.63,0,0,1-1.3-.5,4.26,4.26,0,0,1,1.31-.45c5.22,0,10.44.09,15.65.22a9.39,9.39,0,0,1,2.85.64,7.17,7.17,0,0,1,4.12,10.14,15.36,15.36,0,0,1-3.77,4.63C150.1,45.14,149.68,45.49,149.08,46Zm-8.9-7.68v3.77c0,3.43,0,3.39,3.46,3.46a5,5,0,0,0,4-1.46c2.46-2.64,2.52-8.06.07-10.71-1.76-1.9-4-2.14-6.43-2-.87.06-1.2.43-1.17,1.32C140.22,34.61,140.18,36.48,140.18,38.34Z"/><path class="cls-1" d="M178,44.61q0,5.38,0,10.77c0,.28,0,.56,0,.84.2,3.13.39,3.33,3.52,3.57a1.2,1.2,0,0,1,.41,0,5.94,5.94,0,0,1,.64.43,5,5,0,0,1-.72.49,1.42,1.42,0,0,1-.55,0c-3.87,0-7.74,0-11.61,0a4.22,4.22,0,0,1-1.29-.47,5.12,5.12,0,0,1,1.17-.47c1.61-.22,2-.56,2.16-2.19.14-2,.24-4,.25-6,0-6.11,0-12.21,0-18.32,0-1.46,0-1.46-1.44-1.43l-5.59.1c-1.9,0-3.51.51-4.16,2.58-.07.23-.44.36-.67.53-.11-.24-.34-.5-.3-.72.3-1.74.63-3.48,1-5.22.11-.52.46-.55,1-.48a47.28,47.28,0,0,0,5.4.53c5.83.07,11.66,0,17.48,0a25.87,25.87,0,0,0,3.62-.26c.77-.11,1.16,0,1.14.85,0,1.58,0,3.17-.08,4.75a2.8,2.8,0,0,1-.43.94c-.2-.31-.56-.61-.59-.94a2.28,2.28,0,0,0-1.9-2.14,20.56,20.56,0,0,0-3.44-.48c-1.3-.09-2.61,0-3.91-.09-.93-.06-1.2.27-1.2,1.18,0,3.87,0,7.74,0,11.61Z"/><path class="cls-1" d="M84.51,32.65c0,.93,0,1.86-.15,2.79,0,.24-.37.45-.57.67-.14-.22-.39-.42-.42-.65-.5-5.14-7-5.63-9.92-3.55a4,4,0,0,0-.81,6,14.08,14.08,0,0,0,2.81,2.26c1.2.79,2.54,1.38,3.74,2.19a23.9,23.9,0,0,1,3.5,2.76A8.93,8.93,0,0,1,85,54.51a9,9,0,0,1-7,6.38,21,21,0,0,1-10-.23c-1.92-.48-2.08-.75-2-2.71,0-1.58.13-3.17.25-4.74a3.44,3.44,0,0,1,.49-1.06c.2.32.52.61.58,1a6.92,6.92,0,0,0,9.45,5.6,5.16,5.16,0,0,0,2.18-8.58,21.51,21.51,0,0,0-3.35-2.49c-1.8-1.24-3.72-2.32-5.43-3.68a8.35,8.35,0,0,1-3.25-7.52c.28-3.38,2.31-5.51,5.29-6.8C76,28,79.87,28.39,83.75,29.17a.93.93,0,0,1,.8,1.11c0,.79,0,1.58,0,2.38Z"/><path class="cls-1" d="M269.6,40.13a76.61,76.61,0,0,0-4.68-17.88c.86,0,1.58-.12,2.29-.11s1.39.12,2.29.2l-1-.88.05-.24c.62.16,1.24.3,1.85.49s1.29.46,1.93.7l.21-.28-1.33-.89.2-.3c1.86.33,3.46,1.37,5.4,2.28L276,22a14.39,14.39,0,0,1,5.87,4.3,3,3,0,0,1-.42.18,4.15,4.15,0,0,1-.59,0l1.7,2.13-.88.07a5.71,5.71,0,0,1,.77,1.06c.11.26,1.18.66,0,.94a5.27,5.27,0,0,0,.21.65c.22.46.46.91.69,1.37-.58.18-.58.18-.65,2-3.63-3.81-8.11-4.4-12.9-3.82.44,0,.89,0,1.33.1a3.42,3.42,0,0,1,1.47.51l-2.36.47,4.57.42v.26L273.5,33l0,.16,3.64.71V34l-1,.23,3.75,1.29v.24l-1.25.17,2.72,1.27-.07.13c-.72-.11-1.43-.25-2.15-.34A12,12,0,0,0,273,38.09,28.65,28.65,0,0,0,269.6,40.13Z"/></g></g></svg>