<?xml version="1.0" encoding="UTF-8"?>
<svg width="135px" height="82px" viewBox="0 0 135 82" version="1.1" xmlns="http://www.w3.org/2000/svg" xmlns:xlink="http://www.w3.org/1999/xlink">
    <!-- Generator: Sketch 46.2 (44496) - http://www.bohemiancoding.com/sketch -->
    <title>RR-logo (2)</title>
    <desc>Created with Sketch.</desc>
    <defs></defs>
    <g id="Page-1" stroke="none" stroke-width="1" fill="none" fill-rule="evenodd">
        <g id="RR-logo-(2)" fill-rule="nonzero" fill="#FFFFFF">
            <path d="M109.86,0 C111.59,0.34 113.33,0.61 115.04,1 C125.97,3.73 133.09,12 134.29,23.2 C134.846787,27.525644 134.405506,31.9213489 133,36.05 C130,44.46 123.93,49.46 115.3,51.46 L114.43,51.64 C114.75,52.19 115.01,52.64 115.29,53.11 C120.816667,61.9566667 126.34,70.8033333 131.86,79.65 C132.121493,80.1260876 132.355217,80.616908 132.56,81.12 L115.46,81.12 C110.18,72.1333333 104.903333,63.1333333 99.63,54.12 C99.3146631,53.4908932 98.6387976,53.1269656 97.94,53.21 C93.94,53.21 89.84,53.21 85.79,53.21 C84.35,53.21 84.34,53.21 84.34,54.68 C84.34,61.7066667 84.34,68.7366667 84.34,75.77 C84.34,77.54 84.34,79.3 84.4,81.07 L75.4,81.07 C75.11,77.87 74.7,74.67 74.56,71.47 C74.4389467,65.2856514 74.8841367,59.1032009 75.89,53 C76.36,49.69 77.26,46.44 77.97,43.17 C78.09,42.6 78.27,42.05 79.11,42.39 C79.2257918,43.0703166 79.3997637,43.739439 79.63,44.39 C79.8118689,45.6921124 79.8420708,47.0109272 79.72,48.32 L80.26,47.96 L79.39,50.57 L80.11,49.91 L80.35,50.67 C80.55,50.23 80.68,49.83 80.88,49.48 C81.731958,47.939578 82.0385322,46.1565142 81.75,44.42 C81.5221096,43.4293684 81.5496373,42.3970782 81.83,41.42 L83.73,43.83 L83.65,42.64 L83.87,42.56 L86,45.62 L86.32,44.87 L87.87,48.17 L88.03,48.11 L87.87,46.63 L88.16,46.57 L89.45,50.13 L89.61,50.13 L89.72,48.36 L90.65,50.06 C90.4953055,48.0128394 89.8726425,46.0285286 88.83,44.26 C88.1,43.12 87.44,41.74 86.01,41.13 C85.79,41.04 85.69,40.65 85.54,40.39 C85.7958141,40.2739658 86.0598694,40.1770341 86.33,40.1 C86.5626969,40.0756282 86.7973031,40.0756282 87.03,40.1 C92.76,40.1 98.5,40.1 104.23,40.1 C105.672077,40.1084186 107.111749,39.9811917 108.53,39.72 C114.622343,38.6462953 119.072971,33.3661746 119.1,27.18 C119.31,20.54 115.71,15.54 109.45,13.85 C108.239715,13.4978142 106.989864,13.2995852 105.73,13.26 C98.92,13.2 92.12,13.26 85.31,13.2 C84.59,13.2 84.31,13.45 84.31,14.2 C84.31,15.32 84.31,16.44 84.31,17.56 C84.31,21.48 84.31,25.39 84.31,29.31 C84.31,30.18 84.11,31.09 83.31,31.19 C82.735387,31.2947229 82.2251937,31.6216778 81.89,32.1 C81.4028103,32.6518239 80.9454902,33.2293158 80.52,33.83 L79.71,30.88 C79.6035317,29.9044352 79.3223852,28.9559894 78.88,28.08 C77.8412387,26.8861912 76.7002405,25.7853455 75.47,24.79 C74.65,24.05 73.78,23.37 72.93,22.66 L73.25,22.26 L78.34,26.1 L78.45,25.99 L76.34,23.42 L76.48,23.27 L77.7,23.77 C77.4040014,23.3029241 77.0695051,22.8613891 76.7,22.45 C76.37,22.03 76.2,21.45 75.81,21.13 C74.86,20.34 73.64,20.06 72.64,19.21 C71.64,18.36 70.15,18.21 68.87,17.76 C67.87,17.41 66.87,17.67 65.79,17.38 C64.71,17.09 63.12,17.69 61.79,17.93 C61.4953993,17.9963995 61.204909,18.0798737 60.92,18.18 L60.8,17.89 L64.8,16.13 L64.8,15.95 L62.85,15.95 L62.8,15.67 L67.96,13.87 L67.96,13.73 L66.48,13.61 L66.48,13.35 L72.12,12.35 L72.12,12.14 L69.5,11.91 C71.6,10.97 73.82,11.11 76,10.71 L72.62,10.3 C74.18,9.3 75.98,9.58 77.89,9.18 L72.67,9.18 C72.35,9.18 71.85,9.39 71.73,9.25 C71.02,8.43 70.31,9.09 69.63,9.25 C68.95,9.41 68.4,9.93 67.94,9.79 C66.79,9.43 66.1,10.12 65.28,10.59 C65.08,10.7 64.82,10.99 64.71,10.93 C63.81,10.52 63.2,11.16 62.8,11.65 C61.94,12.7 60.39,12.87 59.8,14.18 C59.8,14.28 59.47,14.28 59.15,14.35 L59.37,11.83 L58.37,12.11 L59.88,8.92 C59.6663519,8.96878531 59.4488659,8.99889875 59.23,9.01 C59.1000911,8.97806529 58.9754726,8.92754428 58.86,8.86 L60.8,6 L59.17,6.4 L61.79,3.19 L60.13,3.19 L62.86,0 L109.86,0 Z" id="Shape"></path>
            <path d="M62,0 C61.65,0.27 61.29,0.53 61,0.82 C60.15,1.53 59.32,2.26 58.47,2.97 C58.08,3.29 57.65,3.55 57.27,3.88 C56.89,4.21 57.07,5.06 56.2,5.12 C56.04,5.12 55.98,6.02 55.82,6.49 C55.71,6.8 56.12,7.59 55.2,7.26 C55.0595965,7.5764133 54.975015,7.91473958 54.95,8.26 C55.0311268,9.12202962 54.8646087,9.9893116 54.47,10.76 C54.2067094,11.5941161 54.045533,12.4570809 53.99,13.33 C53.09,12.2 52.39,11.2 51.55,10.33 C51.25,10.02 50.99,8.9 50.13,9.81 C50.13,9.81 49.81,9.54 49.65,9.39 L47.65,7.51 L47.35,8.44 C47.017022,8.15040233 46.6626845,7.88632061 46.29,7.65 C45.81,7.39 45.46,6.65 44.66,7.36 C44.42,7.58 43.55,7.1 42.96,6.94 C42.6,6.84 42.23,6.72 42.55,7.33 C42.2950546,7.44274851 42.0258982,7.52013097 41.75,7.56 C40.3368418,7.59404408 38.948028,7.93527596 37.68,8.56 L37.68,8.89 L40.21,8.89 L40.42,9.28 L39.16,10.04 L39.33,10.31 L43.74,10.61 L42.23,11.61 L46.23,11.96 C45.8706566,12.8197417 44.9855674,13.3377433 44.06,13.23 C39.54,13.17 35.06,13.13 30.49,13.23 C28.6287672,13.2537579 26.7790585,13.5261696 24.99,14.04 C18.55,16.04 15.32,21.54 15.99,27.92 C16.71,34.92 21.73,39.61 28.81,39.92 C31.69,40.06 34.59,39.98 37.48,39.99 L49,39.99 C51,39.99 50.76,40.07 50.76,38.29 C50.76,34.29 50.82,30.36 50.76,26.4 C50.7122004,25.2228877 51.3740493,24.1316248 52.44,23.63 L52,24.9 L52.87,24.71 C52.0629293,26.727523 51.8377388,28.9309258 52.22,31.07 C52.6514197,33.1863503 53.4866493,35.199729 54.68,37 L54.19,34.89 L54.39,34.79 L55.39,36.18 L55.54,36.12 L54.26,32.34 L54.49,32.2 L55.4,33.55 L55.54,33.5 L54.49,29.62 L55.27,30.29 L54.95,26.6 L55.2,26.6 L55.69,27.38 C55.76,27.28 55.84,27.21 55.83,27.15 C55.83,26.59 55.74,26.03 55.77,25.47 C55.77,25.22 56,24.99 56.13,24.75 C56.42,25.02 56.92,24.47 57.13,25.33 C58.8358171,31.0024168 59.9911546,36.8259874 60.58,42.72 C61.1,48.05 61.69,53.4 61.84,58.72 C61.97,63.18 61.59,67.66 61.3,72.12 C61.1,75.12 60.64,78.12 60.3,81.12 L50.79,81.12 C50.79,80.56 50.72,80.01 50.72,79.45 C50.72,71.1633333 50.72,62.8766667 50.72,54.59 C50.72,53.28 50.72,53.26 49.42,53.26 C45.32,53.26 41.23,53.26 37.13,53.26 C36.3380984,53.2027378 35.5963692,53.6517846 35.28,54.38 C30.3,62.8933333 25.3,71.3966667 20.28,79.89 C20.074125,80.2950055 19.8937732,80.7124865 19.74,81.14 L2.43,81.14 C3.76,78.95 5.06,76.75 6.43,74.58 C10.89,67.42 15.3566667,60.2666667 19.83,53.12 C20.1,52.69 20.34,52.25 20.67,51.7 L19,51.27 C8.83971726,48.9208207 1.42236015,40.1866287 0.75,29.78 C0.230611755,24.9344693 0.917676552,20.0356973 2.75,15.52 C6.22,7.45 12.48,2.78 20.9,0.82 C22.29,0.5 23.71,0.27 25.12,1.45439216e-14 L62,0 Z" id="Shape"></path>
            <path d="M65.94,81.13 C65.88,78.81 65.87,76.48 65.76,74.13 C65.3533333,65.3833333 64.9233333,56.6366667 64.47,47.89 C64.4230735,46.5470794 64.2726272,45.2097793 64.02,43.89 C63.6283047,42.7423952 64.2165019,41.4908178 65.35,41.06 C65.6549189,40.8758888 65.9960506,40.759904 66.35,40.72 L65.35,41.96 L65.47,42.08 L68.68,40 L68.54,40.82 L72,39.42 L72.11,39.62 L71.21,40.62 L74.21,39.62 L73.81,40.5 L76.7,40.5 C72.04,53.77 72.04,67.5 71.85,81.15 L65.94,81.13 Z" id="Shape"></path>
            <path d="M63.6,40.13 C62.7672827,34.0029733 61.1958498,27.999294 58.92,22.25 C59.78,22.25 60.5,22.13 61.21,22.14 C61.92,22.15 62.6,22.26 63.5,22.34 L62.5,21.46 L62.55,21.22 C63.17,21.38 63.79,21.52 64.4,21.71 C65.01,21.9 65.69,22.17 66.33,22.41 L66.54,22.13 L65.21,21.24 L65.41,20.94 C67.27,21.27 68.87,22.31 70.81,23.22 L70,22 C72.2927309,22.9067907 74.3140182,24.3874612 75.87,26.3 C75.7347797,26.3705903 75.5943725,26.4307648 75.45,26.48 C75.2535824,26.4939976 75.0564176,26.4939976 74.86,26.48 L76.56,28.61 L75.68,28.68 C75.9764867,29.0026195 76.2348537,29.3582935 76.45,29.74 C76.56,30 77.63,30.4 76.45,30.68 C76.5058697,30.90098 76.576017,31.1181027 76.66,31.33 C76.88,31.79 77.12,32.24 77.35,32.7 C76.77,32.88 76.77,32.88 76.7,34.7 C73.07,30.89 68.59,30.3 63.8,30.88 C64.24,30.88 64.69,30.88 65.13,30.98 C65.6526766,31.0347967 66.1556936,31.2093128 66.6,31.49 L64.24,31.96 L68.81,32.38 L68.81,32.64 L67.5,33 L67.5,33.16 L71.14,33.87 L71.14,34 L70.14,34.23 L73.89,35.52 L73.89,35.76 L72.64,35.93 L75.36,37.2 L75.29,37.33 C74.57,37.22 73.86,37.08 73.14,36.99 C71.0321511,36.8090138 68.9139185,37.1885018 67,38.09 C65.8209155,38.6906655 64.6848622,39.3722974 63.6,40.13 L63.6,40.13 Z" id="Shape"></path>
        </g>
    </g>
</svg>